<svg width="152" height="71" viewBox="0 0 152 71" fill="none" xmlns="http://www.w3.org/2000/svg">
<rect y="0.59082" width="152" height="70" rx="10" fill="white"/>
<path d="M30.1528 33.6644C31.0548 32.7623 31.9569 31.8861 32.8589 30.9858C34.3716 29.4991 35.8566 27.9882 37.3675 26.5014C38.323 25.5735 39.7822 25.7856 40.3651 26.9274C40.4926 27.1634 40.5568 27.4285 40.5514 27.6967V42.4969C40.5502 42.9582 40.374 43.402 40.0584 43.7384C39.7427 44.0749 39.3111 44.279 38.8508 44.3096H19.6455C19.6714 44.2838 19.6714 44.2303 19.699 44.2044L21.2099 42.6918C21.5462 42.3908 21.8572 42.0626 22.1395 41.7104C22.2064 41.6641 22.2683 41.6109 22.3241 41.5517L24.2886 39.5803C24.5007 39.3682 24.4749 39.3682 24.6335 39.6062C25.032 40.2426 25.4028 40.8532 25.8012 41.4896C25.8547 41.569 25.8805 41.6224 25.9875 41.6224C26.517 41.6224 27.0223 41.6224 27.5518 41.5948C28.0016 41.6308 28.4532 41.64 28.9041 41.6224C29.3199 41.64 29.7364 41.6308 30.1511 41.5948C30.2045 41.5948 30.258 41.6224 30.3097 41.6224H37.7418C37.9263 41.6224 37.9539 41.5431 37.9539 41.3827V29.9009C37.9539 29.8199 38.0074 29.7405 37.9004 29.6888C37.7935 29.637 37.7676 29.7405 37.7142 29.794L33.0935 34.4095C32.1121 35.365 31.1583 36.3464 30.1769 37.3002C30.1549 37.2503 30.1454 37.1958 30.1493 37.1415V33.7972C30.1235 33.823 30.1235 33.7437 30.1528 33.6644Z" fill="#1D2939"/>
<path d="M30.1244 41.6757C29.7097 41.7102 29.2932 41.7188 28.8774 41.7016C28.4266 41.7189 27.9751 41.7102 27.5252 41.6757V33.797C27.4315 33.8382 27.3492 33.9015 27.2855 33.9815C26.2247 35.044 25.164 36.1047 24.0757 37.1655C22.6441 38.5987 21.185 40.0303 19.7517 41.4895C19.6999 41.5429 19.6206 41.5688 19.6465 41.6481C19.6723 41.7275 19.7793 41.7016 19.8586 41.7016H21.8749C21.9542 41.7016 22.0335 41.6757 22.1129 41.7551C21.8312 42.1072 21.5208 42.4355 21.185 42.7365L19.6672 44.2474C19.6413 44.275 19.6413 44.3008 19.6137 44.3543H13.5184C13.439 44.3543 13.3338 44.4078 13.3062 44.3008C13.2786 44.1939 13.3856 44.168 13.439 44.1145L24.3413 33.2123C25.2175 32.3378 26.0919 31.4617 26.9681 30.6131C27.1472 30.4125 27.3684 30.2539 27.6158 30.1486C27.8633 30.0434 28.1309 29.9941 28.3997 30.0042C28.8559 30.0157 29.2907 30.2003 29.6159 30.5206C29.941 30.8409 30.132 31.273 30.1503 31.729C30.1779 32.393 30.1503 33.0295 30.1779 33.6918C30.1779 33.7711 30.1503 33.8522 30.1503 33.9039V37.2379C30.1464 37.2923 30.1558 37.3467 30.1779 37.3966V40.0234C30.1244 40.5615 30.1244 41.1186 30.1244 41.6757Z" fill="#3DD4ED"/>
<path d="M114.265 36.6615V43.6192C114.265 44.0435 114.158 44.1504 113.76 44.1228C113.345 44.097 112.929 44.097 112.515 44.1228C112.116 44.1504 111.958 44.0176 112.009 43.6192C112.037 43.4605 112.09 43.2484 111.958 43.169C111.825 43.0897 111.692 43.3018 111.559 43.3812C109.729 44.6799 107.765 44.6799 105.83 43.8055C103.839 42.9034 102.725 41.2321 102.566 39.0313C102.354 36.4304 103.336 34.3624 105.671 33.1412C107.687 32.1064 109.755 32.2668 111.639 33.5931C111.745 33.6725 111.851 33.8587 111.983 33.7777C112.116 33.6966 112.037 33.5138 112.037 33.381C112.037 32.134 112.063 30.8611 112.037 29.6141C112.037 29.295 112.116 29.1898 112.434 29.2157C112.902 29.2433 113.372 29.2433 113.841 29.2157C114.186 29.1898 114.265 29.3226 114.265 29.64V36.6615ZM104.848 38.3863C104.826 39.3772 105.199 40.3362 105.884 41.0525C106.569 41.7689 107.51 42.184 108.501 42.2066C110.412 42.2066 112.084 40.4818 112.084 38.5191C112.084 36.4769 110.385 34.6728 108.449 34.6987C107.484 34.715 106.564 35.1118 105.89 35.8026C105.216 36.4935 104.841 37.4226 104.848 38.388V38.3863Z" fill="#1D2939"/>
<path d="M115.592 36.7413V30.0302C115.592 29.2075 115.592 29.2075 116.387 29.2075H124.743C125.38 29.2075 125.38 29.2075 125.38 29.8716C125.38 30.1889 125.352 30.4804 125.38 30.7995C125.405 31.1703 125.3 31.3031 124.902 31.3031C122.806 31.2772 120.711 31.3031 118.615 31.2772C118.111 31.2772 118.005 31.41 118.005 31.8861C118.032 32.9744 118.032 34.0886 118.005 35.1769C118.005 35.6012 118.137 35.6806 118.536 35.6806C120.605 35.653 122.675 35.6806 124.716 35.6806C125.352 35.6806 125.352 35.6806 125.38 36.3429C125.38 36.662 125.352 36.9793 125.38 37.2984C125.405 37.6692 125.273 37.802 124.902 37.802C122.832 37.7762 120.737 37.802 118.669 37.802C118.032 37.802 118.032 37.802 118.032 38.4385C118.032 39.4733 118.058 40.5341 118.005 41.5689C117.979 42.0191 118.137 42.1001 118.562 42.1001C120.657 42.0726 122.753 42.1001 124.848 42.0726C125.273 42.0726 125.431 42.2054 125.38 42.6297C125.352 43.0362 125.352 43.4442 125.38 43.8508C125.405 44.2216 125.273 44.3544 124.874 44.3544C123.708 44.3268 122.515 44.3544 121.347 44.3544H116.121C115.697 44.3544 115.538 44.2475 115.538 43.7714C115.592 41.4102 115.592 39.0749 115.592 36.7413Z" fill="#3DD4ED"/>
<path d="M58.7983 44.3268C58.0032 44.3268 57.2598 44.301 56.4906 44.3268C56.1991 44.3268 56.1456 44.1423 56.0663 43.956C55.642 42.8694 55.2436 41.7552 54.8469 40.6669C54.7141 40.296 54.5537 40.1374 54.1294 40.1632C52.6185 40.1897 51.1065 40.1897 49.5933 40.1632C49.4571 40.1452 49.3192 40.1788 49.2065 40.2573C49.0939 40.3358 49.0147 40.4536 48.9844 40.5875C48.5601 41.7276 48.1082 42.8694 47.6839 44.0095C47.6594 44.115 47.5975 44.208 47.5097 44.2714C47.4219 44.3348 47.314 44.3643 47.2062 44.3544C46.4904 44.3268 45.8005 44.3544 45.0312 44.3544C45.3762 43.4265 45.7212 42.5503 46.0661 41.6759C47.6046 37.7756 49.1253 33.8759 50.6281 29.9768C50.7609 29.6594 50.8937 29.5266 51.2387 29.5525C51.7334 29.5783 52.229 29.5783 52.7237 29.5525C52.8181 29.5375 52.9149 29.5557 52.9973 29.6042C53.0797 29.6527 53.1428 29.7283 53.1756 29.8181C55.0314 34.6198 56.9057 39.421 58.7983 44.2216V44.3268ZM51.9286 32.8175C51.2922 34.4888 50.7075 36.0272 50.1245 37.5657C50.0451 37.752 50.1245 37.8314 50.3108 37.8314H53.493C53.6792 37.8314 53.7586 37.8055 53.6792 37.5657C53.1221 36.0307 52.5392 34.4594 51.9286 32.8175Z" fill="#1D2939"/>
<path d="M87.0222 39.3071H82.7983C82.4016 39.3071 82.374 39.4123 82.4809 39.7572C82.9845 41.0577 83.8866 41.9063 85.2923 42.1184C85.9381 42.2423 86.6064 42.1666 87.2081 41.9013C87.8099 41.636 88.3165 41.1938 88.6607 40.6334C88.6933 40.5434 88.7562 40.4676 88.8388 40.4191C88.9213 40.3706 89.0181 40.3524 89.1126 40.3678C89.7491 40.3937 90.3596 40.3678 90.9961 40.3678C91.2617 40.3678 91.3669 40.4213 91.2341 40.6851C90.439 42.4893 89.192 43.8949 87.2292 44.2675C82.9311 45.0954 80.1197 42.2392 79.961 38.5706C79.8282 35.6799 81.9497 33.3963 83.9659 32.7616C84.7739 32.5017 85.6288 32.4213 86.471 32.5259C87.3132 32.6306 88.1225 32.9177 88.8423 33.3674C89.5621 33.817 90.1751 34.4184 90.6386 35.1294C91.102 35.8404 91.4047 36.6439 91.5256 37.484C91.5965 37.9583 91.6409 38.4362 91.6584 38.9155C91.686 39.2346 91.6049 39.3674 91.2341 39.3674C89.8594 39.2864 88.4279 39.3071 87.0222 39.3071ZM85.7752 37.2649C86.7566 37.2649 87.738 37.2373 88.7194 37.2649C89.1713 37.2649 89.1437 37.1321 89.0109 36.7872C88.402 35.4332 87.3672 34.6381 85.8545 34.664C84.3419 34.6899 83.2553 35.4608 82.6189 36.8389C82.4861 37.1321 82.4861 37.2649 82.8845 37.2649C83.8383 37.2373 84.7938 37.2718 85.7752 37.2718V37.2649Z" fill="#1D2939"/>
<path d="M136.733 44.3267C135.672 44.6199 135.168 44.0352 134.716 43.1866C133.947 41.7274 133.019 40.3752 132.276 38.9161C132.091 38.5711 132.012 38.6781 131.852 38.9419C130.898 40.6408 129.835 42.3121 128.802 43.9834C128.74 44.1035 128.644 44.2027 128.526 44.2686C128.408 44.3345 128.273 44.3643 128.138 44.3543C127.581 44.3267 126.998 44.3543 126.441 44.3543C125.989 44.3543 125.963 44.3008 126.201 43.9024C127.369 41.9931 128.563 40.1079 129.756 38.2003C130.048 37.7225 130.341 37.2448 130.658 36.767C130.742 36.6664 130.787 36.5398 130.787 36.4091C130.787 36.2784 130.742 36.1518 130.658 36.0512C129.411 34.0091 128.166 31.9394 126.945 29.8973C126.839 29.711 126.574 29.4989 126.707 29.2608C126.839 29.0746 127.131 29.2074 127.343 29.1815C127.555 29.1677 127.768 29.1677 127.98 29.1815C129.199 29.1815 129.199 29.1815 129.81 30.2164C130.525 31.4616 131.243 32.6828 131.931 33.9298C132.091 34.2213 132.171 34.2213 132.329 33.9298C133.125 32.4706 134.054 31.1167 134.903 29.6851C134.985 29.507 135.123 29.3596 135.294 29.2642C135.466 29.1688 135.663 29.1302 135.858 29.1539C136.344 29.1815 136.83 29.1815 137.316 29.1539C137.449 29.1539 137.635 29.0746 137.714 29.235C137.793 29.3954 137.609 29.4989 137.555 29.6058C136.255 31.7272 134.956 33.8504 133.63 35.9719C133.549 36.0673 133.502 36.1871 133.497 36.3121C133.492 36.4371 133.529 36.5602 133.602 36.6618C135.061 39.0765 136.495 41.4912 137.954 43.9058C138.138 44.199 138.138 44.3301 137.742 44.3301C137.397 44.3094 137.052 44.3267 136.733 44.3267Z" fill="#3DD4ED"/>
<path d="M74.1352 44.3265C71.0859 44.3265 68.7505 42.3378 68.3004 39.6058C67.7174 36.1839 69.8647 33.3966 72.5174 32.7067C75.5685 31.9116 78.4075 33.238 79.52 36.4202C79.601 36.6858 79.601 36.7651 79.3078 36.7651C78.6714 36.7651 78.0625 36.7392 77.4261 36.7651C77.3397 36.7725 77.2533 36.7504 77.1809 36.7025C77.1086 36.6546 77.0546 36.5837 77.0277 36.5012C76.1515 34.8817 74.2422 34.4574 72.783 34.9886C71.3239 35.5198 70.4218 37.217 70.5822 38.9142C70.7668 41.1167 72.783 42.7863 75.1701 42.0446C75.572 41.9201 75.9441 41.7146 76.2636 41.4408C76.5831 41.167 76.8431 40.8307 77.0277 40.4527C77.0686 40.3412 77.1457 40.2466 77.2467 40.1841C77.3477 40.1215 77.4667 40.0946 77.5848 40.1077C78.1677 40.1353 78.7507 40.1077 79.3354 40.1077C79.5476 40.1077 79.7062 40.1077 79.601 40.3992C78.8525 42.3378 77.6589 43.7918 75.5375 44.3092C75.0707 44.3406 74.6026 44.3464 74.1352 44.3265Z" fill="#1D2939"/>
<path d="M102.035 40.5614V43.9643C102.035 44.2558 101.956 44.361 101.663 44.3352C101.195 44.3093 100.725 44.3093 100.257 44.3352C99.8605 44.361 99.7277 44.2558 99.7535 43.8315C99.7794 41.8946 99.7794 39.9318 99.7535 37.9949C99.7535 36.7221 99.1171 35.7665 98.0288 35.3698C96.3575 34.7334 94.5551 36.0321 94.5275 37.8621C94.5016 39.8784 94.5275 41.8946 94.5275 43.9109C94.5275 44.2558 94.4758 44.4145 94.1032 44.361C93.6085 44.3352 93.1129 44.3352 92.6182 44.361C92.3526 44.361 92.2474 44.3093 92.2474 44.0161C92.2474 41.8412 92.2198 39.6662 92.2732 37.4913C92.3072 36.3529 92.7357 35.2616 93.4855 34.4043C94.2352 33.5469 95.2596 32.9768 96.3833 32.7913C98.8774 32.4464 101.104 33.8262 101.847 36.1598C102.011 36.665 102.083 37.1954 102.06 37.7259C102.035 38.6538 102.035 39.6059 102.035 40.5614Z" fill="#1D2939"/>
<path d="M63.0162 44.3095C62.0468 44.4257 61.0677 44.1908 60.2566 43.6472C59.4337 43.0736 58.8563 42.2118 58.6388 41.2325C58.5853 40.9669 58.6388 40.8876 58.9044 40.8876C59.4874 40.8876 60.0979 40.9152 60.6809 40.8876C60.7581 40.8758 60.837 40.8941 60.9012 40.9387C60.9653 40.9833 61.01 41.0508 61.0258 41.1273C61.5295 42.4537 63.1214 42.7452 64.2098 42.3726C64.4373 42.3072 64.641 42.1773 64.7962 41.9985C64.9514 41.8197 65.0514 41.5998 65.0842 41.3654C65.1221 41.1399 65.0918 40.9084 64.9971 40.7003C64.9025 40.4923 64.7478 40.3172 64.553 40.1977C64.0494 39.801 63.4405 39.6406 62.8558 39.4026C62.1292 39.1074 61.4283 38.7526 60.7602 38.3418C58.9837 37.2811 59.0631 34.6284 60.8137 33.4866C62.4315 32.4518 64.9531 32.4794 66.3571 33.5936C66.9404 34.0363 67.3758 34.6455 67.6058 35.3407C67.6852 35.6064 67.6593 35.765 67.3143 35.7392C66.7662 35.7116 66.217 35.7116 65.6689 35.7392C65.5374 35.7486 65.4059 35.7213 65.2889 35.6604C65.172 35.5995 65.0743 35.5074 65.0066 35.3942C64.8506 35.1637 64.6415 34.9741 64.3968 34.8413C64.1522 34.7085 63.8793 34.6365 63.601 34.6312C63.3227 34.626 63.0472 34.6877 62.7978 34.8112C62.5483 34.9347 62.3322 35.1163 62.1676 35.3407C62.0364 35.4828 61.9659 35.6705 61.971 35.8638C61.9762 36.0571 62.0566 36.2408 62.1952 36.3756C62.5769 36.7695 63.0513 37.0613 63.575 37.2242C64.4256 37.5027 65.2508 37.8535 66.0415 38.2728C67.1022 38.9093 67.6593 39.8372 67.58 41.0583C67.5006 42.464 66.7572 43.4195 65.4568 43.9491C64.7151 44.3544 63.9459 44.3268 63.0162 44.3095Z" fill="#1D2939"/>
</svg>
