<svg width="152" height="71" viewBox="0 0 152 71" fill="none" xmlns="http://www.w3.org/2000/svg">
<rect y="0.59082" width="152" height="70" rx="10" fill="white"/>
<path fill-rule="evenodd" clip-rule="evenodd" d="M25.5959 28.2842L20.7039 33.176L17.8574 30.3295L25.5959 22.5908L33.337 30.3321L30.4905 33.1786L25.5959 28.2842ZM15.8466 32.3391L18.6931 35.1856L15.8465 38.0322L13 35.1857L15.8466 32.3391ZM20.7042 37.1962L25.5962 42.088L30.4906 37.1938L33.3387 40.0388L33.3373 40.0404L25.5962 47.7815L17.8575 40.0429L17.8535 40.039L20.7042 37.1962ZM38.1906 35.1868L35.344 38.0334L32.4976 35.187L35.3442 32.3404L38.1906 35.1868ZM28.4823 35.1844H28.4834L25.595 32.2959L23.4603 34.4305H23.4601L23.215 34.6758L22.7091 35.1818L22.7051 35.1858L22.7091 35.19L25.595 38.0759L28.4834 35.1874L28.4848 35.1858L28.4823 35.1844ZM48.8189 28.6948H42.6279V42.0527H48.9719C49.721 42.0527 50.4036 41.9765 51.0196 41.8239C51.6356 41.6711 52.1626 41.4423 52.601 41.1369C53.0393 40.8315 53.3759 40.4497 53.6109 39.9919C53.8458 39.5337 53.9632 38.9995 53.9632 38.3887V38.3507C53.9632 37.4604 53.7414 36.7638 53.2983 36.261C52.855 35.7585 52.247 35.3611 51.4746 35.0683C51.7148 34.9413 51.939 34.7885 52.1477 34.6103C52.3562 34.4324 52.5397 34.2257 52.6974 33.9901C52.8556 33.7547 52.9822 33.4911 53.0769 33.1983C53.1718 32.9058 53.2189 32.5686 53.2189 32.187V32.1488C53.2189 31.2457 52.9143 30.4886 52.3049 29.8778C51.5174 29.0892 50.3555 28.6948 48.8189 28.6948ZM49.7457 33.7613C49.3643 33.9841 48.849 34.0952 48.2 34.0952H45.4902V31.2709H48.3908C49.0139 31.2709 49.491 31.3887 49.8219 31.6241C50.1526 31.8597 50.3181 32.1999 50.3181 32.645V32.6832C50.3181 33.1792 50.1273 33.5387 49.7457 33.7613ZM50.5091 39.1239C50.1398 39.3594 49.6313 39.4768 48.9825 39.4768V39.477H45.4902V36.5382H48.887C49.6504 36.5382 50.2037 36.6687 50.5473 36.9291C50.8907 37.1902 51.0626 37.5431 51.0626 37.9884V38.0264C51.0626 38.5226 50.878 38.8885 50.5091 39.1239ZM57.6514 28.6948H60.5904V42.0531H57.6514V28.6948ZM67.7503 28.6947H65.0409V42.053H67.9413V33.561L74.4107 42.053H76.9104V28.6947H74.0098V36.9197L67.7503 28.6947ZM85.8082 28.5994H88.5178L94.2431 42.053H91.1706L89.9492 39.0571H84.3005L83.0793 42.053H80.0828L85.8082 28.5994ZM88.8996 36.4614L87.1247 32.1297L85.3504 36.4614H88.8996ZM100.125 28.6948H97.415V42.0531H100.316V33.5612L106.785 42.0531H109.285V28.6948H106.384V36.9198L100.125 28.6948ZM119.862 42.2819C118.882 42.2819 117.972 42.1037 117.133 41.7477C116.293 41.3918 115.568 40.9049 114.957 40.2878C114.346 39.6708 113.869 38.9424 113.526 38.1028C113.182 37.263 113.011 36.3661 113.011 35.4119V35.3739C113.011 34.4197 113.182 33.5261 113.526 32.6927C113.869 31.8595 114.346 31.1279 114.957 30.4982C115.568 29.8685 116.299 29.3721 117.151 29.0096C118.004 28.6471 118.946 28.4658 119.976 28.4658C120.599 28.4658 121.168 28.517 121.684 28.6184C122.199 28.7205 122.666 28.8602 123.086 29.0382C123.506 29.2165 123.894 29.4328 124.251 29.687C124.606 29.9417 124.937 30.2214 125.243 30.5268L123.373 32.6832C122.851 32.2126 122.32 31.8433 121.779 31.5763C121.238 31.3093 120.631 31.1756 119.957 31.1756C119.397 31.1756 118.878 31.2839 118.402 31.5001C117.925 31.7164 117.514 32.0152 117.171 32.3969C116.827 32.7785 116.56 33.2207 116.369 33.7231C116.179 34.2259 116.083 34.7633 116.083 35.3357V35.3737C116.083 35.9461 116.179 36.4871 116.369 36.9956C116.56 37.5047 116.824 37.9498 117.161 38.3314C117.498 38.713 117.905 39.0154 118.382 39.2381C118.86 39.4609 119.384 39.5719 119.957 39.5719C120.72 39.5719 121.365 39.432 121.893 39.1521C122.422 38.8726 122.947 38.4908 123.468 38.0071L125.338 39.8964C124.995 40.2655 124.638 40.5964 124.27 40.8886C123.901 41.1815 123.497 41.4326 123.058 41.6427C122.619 41.8524 122.138 42.0117 121.617 42.1196C121.095 42.2276 120.51 42.2819 119.862 42.2819ZM138.855 28.6948H128.798V42.0531H138.951V39.4388H131.699V36.6335H137.996V34.0192H131.699V31.3093H138.855V28.6948Z" fill="#F3BA2F"/>
</svg>
