<svg width="297" height="60" viewBox="0 0 297 60" fill="none" xmlns="http://www.w3.org/2000/svg">
<g clip-path="url(#clip0)">
<path d="M17.9376 25.2125L29.4921 13.5609L41.0528 25.2187L47.776 18.4387L29.4921 0L11.2144 18.4325L17.9376 25.2125Z" fill="#F3BA2F"/>
<path d="M13.1897 29.9989L6.46655 23.219L-0.256899 29.9992L6.46622 36.7791L13.1897 29.9989Z" fill="#F3BA2F"/>
<path d="M17.9376 34.7875L29.4921 46.4391L41.0523 34.7819L47.7793 41.558L47.776 41.5618L29.4921 60L11.2139 41.568L11.2045 41.5585L17.9376 34.7875Z" fill="#F3BA2F"/>
<path d="M52.5184 36.7824L59.2418 30.0022L52.5187 23.2223L45.7953 30.0025L52.5184 36.7824Z" fill="#F3BA2F"/>
<path d="M36.3116 29.9964H36.3145L29.4921 23.1165L24.4502 28.2008H24.4498L23.8708 28.7852L22.6758 29.9903L22.6664 29.9997L22.6758 30.0097L29.4921 36.8835L36.3145 30.0035L36.3177 29.9997L36.3116 29.9964Z" fill="#F3BA2F"/>
<path d="M69.7229 14.5386H84.3456C87.9748 14.5386 90.7192 15.4778 92.5792 17.3563C94.0186 18.8112 94.738 20.6143 94.738 22.7653V22.8563C94.738 23.7653 94.6266 24.5685 94.4025 25.2651C94.1788 25.9627 93.8799 26.5906 93.5063 27.1512C93.1337 27.7123 92.7004 28.2047 92.2079 28.6283C91.715 29.053 91.1854 29.4169 90.6182 29.7192C92.4424 30.4168 93.8785 31.3632 94.9255 32.5602C95.9721 33.7578 96.496 35.4169 96.496 37.5375V37.628C96.496 39.0829 96.2188 40.3553 95.6638 41.4467C95.1088 42.5371 94.3137 43.4465 93.2784 44.1739C92.2432 44.9013 90.9984 45.4463 89.5435 45.8103C88.0886 46.1737 86.4762 46.3552 84.707 46.3552H69.7229V14.5386ZM82.8837 27.4014C84.4166 27.4014 85.6337 27.137 86.5345 26.6062C87.4358 26.076 87.8865 25.2196 87.8865 24.0382V23.9472C87.8865 22.8871 87.4955 22.0768 86.7145 21.5157C85.933 20.9551 84.8061 20.6745 83.3343 20.6745H76.4833V27.4014H82.8837ZM84.7319 40.2198C86.2643 40.2198 87.4654 39.9402 88.3376 39.3791C89.2089 38.8185 89.645 37.947 89.645 36.7651V36.6746C89.645 35.614 89.2389 34.7733 88.4278 34.1516C87.6163 33.5312 86.3094 33.2204 84.5063 33.2204H76.4833V40.2202H84.7319V40.2198Z" fill="#F3BA2F"/>
<path d="M105.205 14.5386H112.146V46.3562H105.205V14.5386Z" fill="#F3BA2F"/>
<path d="M122.66 14.5386H129.06L143.844 34.1293V14.5386H150.695V46.3562H144.791L129.511 26.1295V46.3562H122.66V14.5386Z" fill="#F3BA2F"/>
<path d="M171.71 14.3115H178.11L191.633 46.3561H184.376L181.491 39.2203H168.149L165.265 46.3561H158.187L171.71 14.3115ZM179.012 33.0379L174.82 22.7203L170.629 33.0379H179.012Z" fill="#F3BA2F"/>
<path d="M199.126 14.5386H205.526L220.31 34.1293V14.5386H227.161V46.3562H221.257L205.977 26.1295V46.3562H199.126V14.5386Z" fill="#F3BA2F"/>
<path d="M252.142 46.9011C249.827 46.9011 247.68 46.4765 245.696 45.6287C243.713 44.7809 242 43.6213 240.558 42.1513C239.115 40.6817 237.988 38.9468 237.178 36.947C236.366 34.9467 235.961 32.8104 235.961 30.5376V30.4471C235.961 28.1743 236.366 26.046 237.178 24.0609C237.989 22.0762 239.115 20.3337 240.558 18.8339C242 17.334 243.728 16.1516 245.741 15.2882C247.754 14.4248 249.979 13.993 252.412 13.993C253.884 13.993 255.228 14.1148 256.445 14.3565C257.662 14.5996 258.766 14.9323 259.759 15.3564C260.751 15.781 261.666 16.2962 262.509 16.9018C263.349 17.5084 264.131 18.1747 264.852 18.9021L260.436 24.0381C259.202 22.9174 257.948 22.0378 256.671 21.4019C255.394 20.7659 253.959 20.4475 252.367 20.4475C251.045 20.4475 249.82 20.7053 248.694 21.2204C247.567 21.7355 246.598 22.4473 245.786 23.3562C244.975 24.2651 244.344 25.3186 243.893 26.5152C243.443 27.7127 243.218 28.9927 243.218 30.3561V30.4466C243.218 31.81 243.443 33.0985 243.893 34.3098C244.344 35.5225 244.966 36.5825 245.764 37.4915C246.56 38.4004 247.521 39.1207 248.648 39.651C249.776 40.1818 251.015 40.4462 252.367 40.4462C254.17 40.4462 255.694 40.113 256.941 39.4463C258.188 38.7805 259.428 37.8711 260.66 36.719L265.077 41.2191C264.266 42.0982 263.423 42.8863 262.553 43.5824C261.682 44.28 260.728 44.878 259.691 45.3785C258.655 45.878 257.519 46.2575 256.288 46.5144C255.055 46.7717 253.674 46.9011 252.142 46.9011Z" fill="#F3BA2F"/>
<path d="M273.247 14.5386H297V20.766H280.098V27.2204H294.972V33.4474H280.098V40.1292H297.226V46.3562H273.247V14.5386Z" fill="#F3BA2F"/>
</g>
<defs>
<clipPath id="clip0">
<rect width="297" height="60" fill="white"/>
</clipPath>
</defs>
</svg>
