<svg width="127" height="15" viewBox="0 0 127 15" fill="none" xmlns="http://www.w3.org/2000/svg">
<path d="M112.643 12.7733C113.324 13.4988 117.066 16.9759 122.939 12.9405C127.186 9.61454 127.08 2.40382 126.672 0.226314C126.53 0.543213 121.597 11.4062 112.643 12.7733ZM126.671 0.224471C126.619 0.202861 121.155 -0.546241 115.754 2.95223C112.4 5.12467 111.957 8.30426 112.11 10.423C119.962 9.53934 126.493 0.473589 126.671 0.224471Z" fill="#97C554"/>
<path d="M126.671 0.224471C126.619 0.202861 121.155 -0.546241 115.754 2.95223C112.4 5.12467 111.957 8.30426 112.11 10.423C119.962 9.53934 126.493 0.473589 126.671 0.224471Z" fill="#709B30"/>
<path d="M8.90119 12.3493H2.78474V9.07327H8.90119C10.4303 9.07327 11.2115 9.8087 11.2115 10.7614C11.2115 11.6807 10.4469 12.3493 8.90119 12.3493ZM8.70174 7.31827H2.78474V4.56041H8.70174C10.314 4.56041 10.9456 5.1287 10.9456 5.91427C10.9456 6.63298 10.2142 7.31827 8.70174 7.31827ZM10.2641 8.15398C12.8403 8.07041 13.7711 6.78341 13.7711 5.37941C13.7711 3.8417 12.5578 2.57141 9.59927 2.57141H0.142029V14.3048H9.88182C12.3085 14.3048 14.1201 13.2853 14.1201 11.0957C14.1201 9.54127 13.1063 8.22084 10.2641 8.15398ZM17.2414 2.57141V14.3048H19.8841V2.57141H17.2414ZM30.6011 4.79441H36.4184V2.57141H22.1412V4.79441H27.9584V14.3048H30.6011V4.79441ZM38.6754 2.57141V14.3048H41.3182V9.72513H47.5177V7.80298H41.3182V4.59384H51.3904V2.57141H38.6754ZM53.531 2.57141V14.3048H56.1737V2.57141H53.531ZM62.3699 5.42955L71.1291 14.3048H74.1208V2.57141H71.5113V11.0288L63.1012 2.57141H59.7438V14.3048H62.3699V5.42955ZM77.6909 2.57141V14.3048H90.6219V12.3326H80.3336V9.1067H86.4999V7.28484H80.3336V4.59384H90.6219V2.57141H77.6909ZM108.32 2.57141H104.829L100.375 6.69984L95.9537 2.57141H92.4135L98.6297 8.35456L92.1808 14.3048H95.6712L100.342 9.97584L104.995 14.3048H108.552L102.087 8.33784L108.32 2.57141Z" fill="black"/>
</svg>
