<svg width="91" height="15" viewBox="0 0 91 15" fill="none" xmlns="http://www.w3.org/2000/svg">
<g clip-path="url(#clip0)">
<path d="M7.73736 0.281128H16.2404C16.2352 0.395255 16.1964 0.50517 16.1289 0.596595C15.841 1.09754 15.582 1.61894 15.2991 2.11989C14.899 2.83918 14.5248 3.57162 14.1182 4.28799C13.8606 4.80355 13.5699 5.30304 13.295 5.80983C11.6427 5.80983 9.9905 5.80983 8.33825 5.80983C8.25189 5.80983 8.16626 5.81421 8.0799 5.81932C8.00794 6.01211 7.88848 6.18079 7.79206 6.36189C7.66612 6.56928 7.56394 6.79055 7.43944 6.99794C7.30775 7.27689 7.12569 7.52664 6.99328 7.80486C6.71982 8.27587 6.46435 8.75418 6.19666 9.2303C5.91744 9.71714 5.64447 10.2108 5.37773 10.7112C5.26484 10.8886 5.16085 11.0717 5.06613 11.2597C4.50699 12.247 3.96583 13.243 3.40597 14.2296C3.35848 14.3356 3.29593 14.434 3.2203 14.5217C2.26321 14.5151 1.30611 14.5217 0.349016 14.5217C0.231135 14.5239 0.113953 14.5406 0 14.5713C0 14.3026 0.177027 14.0872 0.296484 13.8615C0.440408 13.5585 0.632547 13.2773 0.777191 12.9735C1.92427 10.8909 3.05911 8.80092 4.20259 6.71679C4.46165 6.26404 4.68401 5.8018 4.94452 5.3578C5.26978 4.77361 5.57274 4.17627 5.91169 3.59864C6.01963 3.35693 6.16499 3.13566 6.28373 2.89979C6.70543 2.13815 7.11921 1.37212 7.53947 0.610469C7.58933 0.491521 7.65599 0.380577 7.73736 0.281128Z" fill="#EB4A60"/>
<path d="M17.5904 3.34745C18.1567 2.34336 18.7036 1.32832 19.2779 0.328613H22.3492C22.394 0.33091 22.4384 0.338008 22.4816 0.34979C22.3795 0.506793 22.2938 0.67329 22.2039 0.836865C21.4631 2.18587 20.7246 3.53561 19.9882 4.88608C19.6787 5.43596 19.3909 5.99825 19.0771 6.5452L19.0462 6.55616L19.0404 6.6248C17.5964 9.25369 16.1571 11.8845 14.7227 14.5173C11.9032 14.5202 9.0835 14.5202 6.26355 14.5173C6.42403 14.177 6.61401 13.8521 6.79247 13.5213C7.59557 12.0228 8.41953 10.5375 9.21112 9.039C10.9435 9.03608 12.6759 9.03608 14.4082 9.039C15.4783 7.14766 16.5253 5.24171 17.5875 3.34745H17.5904Z" fill="#105BFF"/>
<path d="M49.2875 0.289917V14.6904H51.7464V4.56405L56.2318 11.2334L60.6812 4.40559V14.6904H63.2121V0.289917H60.4898L56.2498 6.93735L51.9623 0.289917H49.2875Z" fill="black"/>
<path d="M37.7859 4.00391H39.3928V14.8116H37.7859V4.00391Z" fill="black"/>
<path d="M37.6477 0H39.531V1.8132H37.6477V0Z" fill="black"/>
<path d="M42.4633 0.906982H44.1422V4.00396H47.4525V5.51338H44.1422V11.9337C44.1393 12.1811 44.1959 12.4255 44.307 12.6457C44.5913 13.1934 45.3634 13.8433 47.4525 13.0839V14.483C47.4525 14.483 45.5455 15.5784 43.8184 14.5809C43.8184 14.5809 42.9606 14.2114 42.6001 12.9641C42.5064 12.63 42.4604 12.284 42.4633 11.9366V5.48928L41.0479 5.51338V4.00396H42.4749L42.4633 0.906982Z" fill="black"/>
<path d="M65.8029 0.289917V14.7875H76.477V12.4507H68.4057V8.60451H75.5178V6.30423H68.3935V2.64131H76.3935V0.289917H65.8029Z" fill="black"/>
<path d="M77.4787 0.289917H80.5191L84.0093 5.37974L87.4721 0.289917H90.5125L85.5471 7.36017L90.8219 14.7751H87.6196L84.0215 9.35958L80.2493 14.7875H77.2089L82.4081 7.42443L77.4787 0.289917Z" fill="black"/>
<path d="M32.868 7.26593C32.868 7.26593 35.219 6.36553 35.075 3.77316C35.075 3.77316 35.0556 1.2801 32.2894 0.510415C31.8295 0.385361 31.3551 0.323468 30.8789 0.326393H24.2448L24.2627 14.7269H31.405C31.405 14.7269 35.5845 14.6356 35.8789 10.8566C35.8789 10.8566 36.1782 8.21525 32.868 7.26593ZM25.9596 1.81318H30.1939C33.5156 1.80149 33.4199 4.17479 33.4199 4.17479C33.4696 6.88255 30.4213 6.82778 30.4213 6.82778H25.9596V1.81318ZM31.1409 13.205H25.9596V8.19115H30.9135C34.2352 8.17874 34.1395 10.552 34.1395 10.552C34.1892 13.2598 31.1409 13.205 31.1409 13.205Z" fill="black"/>
</g>
<defs>
<clipPath id="clip0">
<rect width="91" height="15" fill="white"/>
</clipPath>
</defs>
</svg>
