<svg width="116" height="20" viewBox="0 0 116 20" fill="none" xmlns="http://www.w3.org/2000/svg">
<path d="M27.2782 19.9117H104.082V17.9117H27.2782V19.9117Z" fill="#159E49"/>
<path d="M109.405 19.9117H116V17.9117H109.405V19.9117Z" fill="#159E49"/>
<path d="M44.993 14.8824H42.2426V4.58826H44.993V14.8824Z" fill="#333433"/>
<path d="M42.4496 0.441176C42.1243 0.764735 41.9765 1.14703 41.9765 1.61765C41.9765 2.08826 42.1243 2.5 42.4496 2.79412C42.7749 3.08824 43.1594 3.23529 43.6326 3.23529C44.1058 3.23529 44.5198 3.08824 44.8155 2.79412C45.1409 2.47056 45.2887 2.08826 45.2887 1.61765C45.2887 1.11766 45.1113 0.735294 44.8155 0.441176C44.5198 0.147059 44.1353 0 43.6326 0C43.1594 0 42.7454 0.147059 42.4496 0.441176Z" fill="#333433"/>
<path d="M54.1313 4.55882H51.2922V1.58821H48.6602V4.61763H46.7674V6.67646H48.6602V11.8823C48.6602 12.3823 48.7193 12.8235 48.8968 13.2353C49.0742 13.647 49.3108 14 49.6065 14.2941C49.9318 14.5882 50.2867 14.8235 50.7008 14.9706C51.1148 15.1176 51.588 15.2059 52.0907 15.2059C52.8301 15.2059 53.599 15.0882 54.3975 14.8823L54.0426 12.8529C53.5694 12.9705 53.1258 13.0294 52.7414 13.0294C52.2978 13.0294 51.9724 12.8823 51.7063 12.6176C51.4401 12.3529 51.3218 11.9999 51.3218 11.5588V6.61765H54.1313V4.55882Z" fill="#333433"/>
<path d="M55.7579 7.41175C55.7579 6.97057 55.8466 6.5294 56.0536 6.14703C56.2607 5.76473 56.5268 5.44118 56.8521 5.14706C57.207 4.88238 57.6211 4.64707 58.0942 4.50001C58.5674 4.35296 59.1293 4.26471 59.6912 4.26471C60.2827 4.26471 60.9038 4.32352 61.5248 4.44121C62.1459 4.55882 62.7965 4.73532 63.4471 4.97056L62.8556 6.91177C62.3529 6.7059 61.8501 6.55884 61.3474 6.44115C60.8446 6.32353 60.3714 6.26472 59.9278 6.26472C59.4546 6.26472 59.0702 6.35297 58.7744 6.55884C58.4787 6.76471 58.3604 7.02938 58.3604 7.38238C58.3604 7.70587 58.5083 7.94118 58.7744 8.08824C59.0406 8.23529 59.3659 8.38235 59.78 8.49997C60.194 8.61766 60.608 8.73528 61.0812 8.82353C61.5544 8.94115 61.998 9.11765 62.3825 9.35296C62.7965 9.58826 63.1218 9.91175 63.388 10.2941C63.6541 10.7059 63.802 11.2353 63.802 11.8823C63.802 12.3529 63.7133 12.7647 63.5063 13.1765C63.2993 13.5589 63.0331 13.9118 62.6782 14.2059C62.3233 14.5 61.9093 14.7059 61.3769 14.8824C60.8742 15.0294 60.3123 15.1176 59.7208 15.1176C58.4491 15.1176 57.0887 14.8529 55.6692 14.2941L56.2311 12.3824C57.4436 12.8824 58.5379 13.1177 59.5138 13.1177C60.0166 13.1177 60.4306 13 60.7263 12.7941C61.0221 12.5883 61.1699 12.2941 61.1699 11.9118C61.1699 11.5882 61.0221 11.353 60.7559 11.1765C60.4897 11 60.1644 10.8529 59.7504 10.7353L59.7451 10.7338C59.3328 10.6167 58.9203 10.4995 58.4491 10.3824C57.9759 10.2647 57.5619 10.0883 57.1479 9.85294C56.7338 9.61763 56.4085 9.32352 56.1424 8.94115C55.8762 8.58822 55.7579 8.05879 55.7579 7.41175Z" fill="#333433"/>
<path d="M72.1419 4.55882H69.3028V1.58821H66.6707V4.61763H64.778V6.67646H66.6707V11.8823C66.6707 12.3823 66.7298 12.8235 66.9073 13.2353C67.0847 13.647 67.2917 14 67.6171 14.2941C67.9424 14.5882 68.2973 14.8235 68.7113 14.9706C69.1253 15.1176 69.5985 15.2059 70.1013 15.2059C70.8406 15.2059 71.6095 15.0882 72.408 14.8823L72.0531 12.8529C71.58 12.9705 71.1364 13.0294 70.7519 13.0294C70.3083 13.0294 69.983 12.8823 69.7168 12.6176C69.4506 12.3529 69.3323 11.9999 69.3323 11.5588V6.61765H72.1419V4.55882Z" fill="#333433"/>
<path fill-rule="evenodd" clip-rule="evenodd" d="M73.9163 11.8823C73.9163 10.7941 74.3303 9.94119 75.1584 9.35296C75.9865 8.76472 77.1399 8.4706 78.6481 8.4706C78.9734 8.4706 79.2988 8.49997 79.6241 8.52941C79.9494 8.55878 80.3043 8.61766 80.6296 8.67647V8.1176C80.6296 7.58825 80.4521 7.14707 80.0677 6.82352C79.6832 6.49996 79.1805 6.32353 78.5298 6.32353C77.4948 6.32353 76.3709 6.55884 75.1584 7.05882L74.4782 5.17643C75.9569 4.58819 77.406 4.32352 78.8256 4.32352C79.4762 4.32352 80.0381 4.41177 80.5704 4.61763C81.1028 4.79413 81.5464 5.05881 81.9308 5.41174C82.3153 5.73529 82.611 6.14703 82.8181 6.61765C83.0251 7.08819 83.1434 7.61762 83.1434 8.17649V12.3823C83.1434 12.6176 83.2025 12.7941 83.3208 12.9117C83.4391 13.0588 83.6166 13.1176 83.8531 13.1176C83.9714 13.1176 84.0602 13.1176 84.1785 13.0882C84.2021 13.0882 84.2257 13.0862 84.2483 13.0831C84.279 13.0789 84.3076 13.0729 84.3313 13.068L84.3321 13.0678C84.3559 13.0627 84.3747 13.0588 84.3855 13.0588L84.5629 15.0294C84.4446 15.0441 84.3337 15.0661 84.2228 15.0882C84.1119 15.1103 84.001 15.1323 83.8827 15.1471C83.6461 15.1764 83.4095 15.1764 83.1434 15.1764C82.611 15.1764 82.1674 15.0588 81.783 14.7941C81.3985 14.5588 81.1323 14.2059 80.9549 13.7647C80.5113 14.2059 79.979 14.5588 79.4171 14.7941C78.8256 15.0294 78.2341 15.1471 77.5835 15.1471C77.0511 15.1471 76.5484 15.0588 76.1048 14.9118C75.6612 14.7647 75.2767 14.5294 74.9514 14.2353C74.6261 13.9411 74.3895 13.6177 74.212 13.2059C74.005 12.7941 73.9163 12.3529 73.9163 11.8823ZM76.4892 11.7353C76.4892 12.1471 76.6667 12.5 76.992 12.7941C77.3469 13.0882 77.7609 13.2353 78.2637 13.2353C78.9734 13.2353 79.5354 13 79.979 12.5588C80.4226 12.1176 80.6296 11.5294 80.6296 10.8235V10.2059C80.1268 10.0588 79.5649 10 78.9439 10C78.1749 10 77.5835 10.1471 77.1399 10.4705C76.7258 10.7647 76.4892 11.2058 76.4892 11.7353Z" fill="#333433"/>
<path d="M88.2301 4.52938H86.0712V14.8824H88.7624V9.0294C88.7624 8.26474 88.9694 7.6765 89.4131 7.20588C89.8567 6.73527 90.4186 6.50003 91.1283 6.50003C91.7198 6.50003 92.193 6.7059 92.5479 7.05882C92.9028 7.44119 93.0802 7.91174 93.0802 8.49997V14.8824H95.7714V9.0294C95.7714 8.26474 95.9785 7.6765 96.4221 7.20588C96.8657 6.73527 97.4276 6.50003 98.1078 6.50003C98.6993 6.50003 99.1724 6.7059 99.5569 7.05882C99.9414 7.44119 100.119 7.91174 100.119 8.49997V14.8824H102.81V8.05879C102.81 7.5 102.692 7.00001 102.514 6.5294C102.337 6.05885 102.071 5.64704 101.716 5.32356C101.39 4.97056 100.976 4.70588 100.503 4.52938C100.03 4.35296 99.5273 4.26471 98.9654 4.26471C98.1965 4.26471 97.5163 4.41177 96.8953 4.73532C96.2742 5.05881 95.7123 5.52943 95.2391 6.14703C94.9434 5.55879 94.4998 5.08825 93.9379 4.76469C93.3464 4.44121 92.6958 4.26471 91.9268 4.26471C91.2466 4.26471 90.6256 4.41177 90.0341 4.70588C89.4426 5 88.9694 5.41174 88.5554 5.94116L88.2301 4.52938Z" fill="#333433"/>
<path fill-rule="evenodd" clip-rule="evenodd" d="M105.353 4.52938H107.483L107.808 5.85291C108.192 5.35293 108.636 4.97056 109.198 4.67644C109.76 4.41177 110.381 4.26471 111.061 4.26471C111.741 4.26471 112.362 4.41177 112.954 4.67644C113.516 4.94119 114.019 5.32356 114.433 5.7941C114.847 6.26472 115.172 6.82352 115.409 7.5C115.645 8.14705 115.763 8.88234 115.763 9.67644C115.763 10.4706 115.645 11.2059 115.409 11.853C115.172 12.5 114.847 13.0882 114.433 13.5589C114.019 14.0294 113.516 14.4118 112.954 14.6764C112.392 14.9412 111.741 15.0883 111.061 15.0883C110.44 15.0883 109.849 14.9706 109.346 14.7353C108.814 14.5 108.37 14.1471 108.015 13.6765V19.9412H105.353V4.52938ZM113.043 9.67644C113.043 9.2059 112.983 8.76472 112.836 8.35291C112.717 7.94118 112.51 7.58825 112.274 7.3235C112.037 7.02938 111.771 6.82352 111.446 6.64709C111.12 6.47059 110.765 6.41178 110.381 6.41178C109.671 6.41178 109.109 6.64709 108.636 7.14707C108.193 7.61762 107.956 8.23529 107.956 9.00003V10.3824C107.956 10.7647 108.015 11.1177 108.133 11.4118C108.252 11.7353 108.429 12 108.636 12.2353C108.843 12.4706 109.109 12.6471 109.405 12.7647C109.701 12.8824 110.026 12.9412 110.381 12.9412C110.765 12.9412 111.12 12.8529 111.446 12.7059C111.771 12.5588 112.037 12.3235 112.274 12.0294C112.51 11.7353 112.688 11.3823 112.836 11C112.983 10.6177 113.043 10.1471 113.043 9.67644Z" fill="#333433"/>
<path fill-rule="evenodd" clip-rule="evenodd" d="M37.2742 7.5C38.0135 7.76475 38.605 8.20593 39.0486 8.82353C39.4922 9.44121 39.6993 10.1471 39.6993 11C39.6993 11.5883 39.581 12.1177 39.3444 12.5883C39.1373 13.0589 38.812 13.4706 38.398 13.8235C37.984 14.1765 37.5108 14.4412 36.9489 14.6177C36.387 14.8236 35.7955 14.9118 35.1153 14.9118H27.2782V13.0294C28.4316 13.0294 29.3484 12.0883 29.3484 10.9412V10.6177C29.3484 9.47065 28.4316 8.52941 27.2782 8.52941V6.82359C28.4316 6.82359 29.3484 5.88235 29.3484 4.73532C29.3484 3.58829 28.4316 2.64706 27.2782 2.64706V0.764735H34.79C35.4406 0.764735 36.0321 0.852984 36.5644 1.02941C37.0967 1.20591 37.5699 1.47059 37.9544 1.79415C38.3389 2.1177 38.6642 2.5 38.8712 2.97062C39.0782 3.41179 39.1965 3.91178 39.1965 4.47065C39.1965 5.1765 39.0191 5.79418 38.6642 6.32353C38.3093 6.85296 37.8657 7.23532 37.2742 7.5ZM34.6421 12.8236C35.3519 12.8236 35.9138 12.6471 36.3278 12.2353C36.7714 11.853 36.9785 11.3235 36.9489 10.6765C36.9489 10.0589 36.7419 9.52946 36.3278 9.14709C35.8842 8.76472 35.3223 8.55885 34.6421 8.55885H31.3298V12.8236H34.6421ZM34.3759 2.79412H31.3298V6.73534H34.3759C34.997 6.73534 35.4998 6.55884 35.9138 6.20591C36.2983 5.85298 36.5053 5.38237 36.5053 4.79413C36.5053 4.2059 36.3278 3.70591 35.9138 3.35298C35.4998 2.97062 34.997 2.79412 34.3759 2.79412Z" fill="#333433"/>
<path fill-rule="evenodd" clip-rule="evenodd" d="M11.4208 8.84851C11.0652 8.7934 10.6999 8.81267 10.3411 8.80953C9.80806 8.80953 9.27505 8.81625 8.74479 8.8064C8.73839 9.75174 8.73839 10.6969 8.74479 11.642C9.38476 11.6352 10.022 11.6388 10.6606 11.6388C10.9993 11.6388 11.3463 11.6514 11.6708 11.5322C11.8898 11.4554 12.0852 11.3255 12.239 11.1545C12.3927 10.9835 12.4997 10.7771 12.5499 10.5546C12.6253 10.1805 12.586 9.771 12.367 9.44842C12.1595 9.12584 11.7961 8.92244 11.4208 8.84851Z" fill="#149F49"/>
<path fill-rule="evenodd" clip-rule="evenodd" d="M10.203 0C4.56804 0 0 4.47715 0 10C0 15.5228 4.56804 20 10.203 20C15.838 20 20.406 15.5228 20.406 10C20.406 4.47715 15.838 0 10.203 0ZM5.95175 11.7518C6.49482 11.7612 7.01457 11.4225 7.23856 10.9418C7.3427 10.7165 7.38794 10.4694 7.37021 10.2227C7.39307 9.74507 7.15628 9.25806 6.74166 8.99686C6.5131 8.83557 6.23151 8.77285 5.95495 8.75493C5.95175 8.37724 5.95495 8.00314 5.95175 7.62903C6.34991 7.64516 6.73801 7.46461 7.00314 7.17742C7.25945 6.89494 7.39097 6.52435 7.36884 6.14695C7.32313 5.68907 7.04885 5.24686 6.6251 5.03719C6.42076 4.92115 6.18717 4.87903 5.95358 4.86962C5.94673 4.45654 5.95358 4.04704 5.95038 3.6371C7.76379 3.63396 9.5772 3.63082 11.3938 3.6371C12.1147 3.6819 12.8456 3.931 13.3818 4.41801C13.7428 4.74943 13.9852 5.18603 14.073 5.66308C14.1521 6.23387 14.0995 6.85663 13.7471 7.33737C13.5236 7.67921 13.1812 7.92742 12.8159 8.11469C13.3818 8.32751 13.8888 8.71774 14.1718 9.25C14.5603 9.97939 14.5503 10.9019 14.1324 11.6147C13.8458 12.1147 13.3654 12.4919 12.8292 12.7115C12.293 12.931 11.6969 13.0081 11.1177 13.0018H5.95221C5.95084 12.5838 5.95404 12.1676 5.95084 11.7518H5.95175ZM14.4543 16.3611C13.2991 16.3741 12.1408 16.3647 10.9801 16.3678C9.30476 16.3647 7.62986 16.3741 5.9545 16.3611C5.94444 15.9162 5.94444 15.4677 5.9545 15.0193C7.70528 15.0063 9.45652 15.0193 11.2114 15.0161C12.2912 15.0193 13.3741 15.0063 14.4533 15.0193C14.462 15.4677 14.462 15.9162 14.452 16.3611H14.4543Z" fill="#149F49"/>
<path fill-rule="evenodd" clip-rule="evenodd" d="M10.4764 7.58067C10.7625 7.5744 11.0524 7.60665 11.3285 7.51929C11.7828 7.39339 12.1911 7.02242 12.2633 6.55155C12.3291 6.16445 12.2537 5.73569 11.9771 5.43864C11.6841 5.1192 11.2297 4.96463 10.7987 4.98076H8.7384C8.7416 5.84859 8.7416 6.71284 8.7384 7.57932L10.4764 7.58067Z" fill="#149F49"/>
<path d="M11.21 15.0162C9.45604 15.0193 7.7048 15.0063 5.9531 15.0193C5.94304 15.4674 5.94304 15.9154 5.9531 16.3612C7.62846 16.3742 9.30336 16.3648 10.9787 16.3679C12.1375 16.3648 13.2959 16.3742 14.4529 16.3612C14.4629 15.9163 14.4629 15.4678 14.4529 15.0193C13.3727 15.0063 12.2898 15.0193 11.21 15.0162Z" fill="#73C692"/>
</svg>
