<svg width="98" height="23" viewBox="0 0 98 23" fill="none" xmlns="http://www.w3.org/2000/svg">
<g clip-path="url(#clip0)">
<path d="M38.5584 5.74969C38.3399 5.53086 38.0885 5.34736 37.8133 5.2058C37.6776 5.13426 37.5362 5.07405 37.3905 5.0258L37.4833 4.9808C37.6616 4.88899 37.8257 4.77207 37.9706 4.63364C38.2114 4.38647 38.391 4.08664 38.4952 3.75802C38.6092 3.40589 38.6654 3.03769 38.6615 2.66768C38.6656 2.30973 38.6054 1.95395 38.4836 1.6172C38.374 1.31581 38.1978 1.04291 37.968 0.818733C37.4679 0.332708 36.6261 0.000976562 35.4943 0.000976562H29.5555V10.5225H35.9223C36.4194 10.5325 36.9141 10.4528 37.3828 10.2872C37.7702 10.1436 38.122 9.91814 38.414 9.62632C38.659 9.3757 38.846 9.07468 38.9619 8.74427C39.0928 8.38052 39.1587 7.9967 39.1565 7.61023C39.1597 7.25452 39.1111 6.90021 39.0122 6.55845C38.9264 6.25717 38.771 5.98016 38.5584 5.74969ZM36.2226 8.18882C36.107 8.27356 35.9755 8.3343 35.8359 8.36751C35.6516 8.41271 35.4623 8.43435 35.2725 8.43183H32.0305V6.30129H35.2983C35.6207 6.28657 35.9387 6.38081 36.2007 6.56873C36.3153 6.66305 36.4014 6.78723 36.4495 6.92746C36.5042 7.09065 36.5304 7.262 36.5268 7.43406C36.5297 7.5868 36.5048 7.73889 36.4534 7.88278C36.4057 8.00375 36.3259 8.10955 36.2226 8.18882ZM35.9493 2.65997C36.0094 2.81454 36.04 2.97893 36.0395 3.1447C36.0427 3.32995 36.0122 3.51423 35.9493 3.68859C35.9005 3.82285 35.8216 3.94422 35.7186 4.04346C35.6332 4.12416 35.5312 4.18517 35.4195 4.22219C35.2994 4.2617 35.1735 4.28082 35.047 4.27876H32.0305V2.08008H34.8304C35.0113 2.07652 35.192 2.09597 35.3679 2.13794C35.5003 2.16895 35.6235 2.23062 35.7276 2.31795C35.829 2.41375 35.9066 2.53172 35.9545 2.66253L35.9493 2.65997Z" fill="#020003"/>
<path d="M41.1289 10.5215H41.2669H43.6942V0H41.1289V10.5215Z" fill="#020003"/>
<path d="M45.2499 2.16911H48.5925V10.5215H51.1577V2.16911H54.5118V0H45.2499V2.16911Z" fill="#020003"/>
<path d="M55.431 2.16911H58.7723V10.5215H61.3375V2.16911H64.693V0H55.431V2.16911Z" fill="#020003"/>
<path d="M74.8547 5.057C75.1061 4.62369 75.2503 3.99365 75.2503 3.19904C75.256 2.82049 75.2186 2.44252 75.1371 2.0727C75.068 1.76773 74.944 1.47766 74.7725 1.21638C74.539 0.821617 74.1903 0.507516 73.7731 0.31633C73.2485 0.0897918 72.6799 -0.0182215 72.1092 2.80971e-05H66.2489V10.5215H68.7367V6.53564H71.2169L73.2204 10.5215H76.0559L73.6304 6.04319C73.8891 5.96746 74.1312 5.84135 74.3409 5.67209C74.5513 5.50284 74.7257 5.29379 74.8547 5.057ZM72.6353 4.11452C72.6064 4.16938 72.5668 4.21793 72.5192 4.25724C72.4248 4.32984 72.316 4.38197 72.2007 4.41025C72.0471 4.44882 71.8894 4.4674 71.7313 4.46554H68.7496V2.16914H71.6011C71.8392 2.16004 72.0768 2.20032 72.2987 2.28743C72.378 2.32207 72.4508 2.36941 72.5149 2.42758C72.5747 2.48362 72.6244 2.54979 72.6605 2.62301C72.6778 2.66464 72.6922 2.70765 72.7023 2.75159C72.7448 2.95842 72.7657 3.16917 72.7635 3.38034C72.7628 3.51311 72.7506 3.64558 72.7275 3.77636C72.7109 3.89248 72.6799 4.00608 72.6353 4.11452Z" fill="#020003"/>
<path d="M74.8557 5.05701H74.8547V5.05834L74.8557 5.05701Z" fill="#020003"/>
<path d="M80.1273 6.37103H85.562V4.15049H80.1273V2.20896H85.7702V0H77.6521V10.5215H77.7912H85.8351V8.32669H80.1273V6.37103Z" fill="#020003"/>
<path d="M97.2873 13.7694H29.6136V23H97.2873V13.7694Z" fill="#1C6FE8"/>
<path d="M54.0209 20.9493L53.9694 20.4697C53.696 20.7873 53.2991 21.0213 52.4728 21.0213C51.6671 21.0213 51.0225 20.7358 50.6462 20.2627C50.3664 19.9116 50.1576 19.2572 50.1576 18.3944C50.1576 17.6487 50.2426 17.0971 50.6268 16.5777C50.9581 16.1302 51.582 15.7483 52.6094 15.7483C53.7025 15.7483 54.3329 16.1045 54.6384 16.6484C54.8009 16.9351 54.8862 17.2589 54.8859 17.5883H53.7927C53.7796 17.3711 53.688 17.166 53.5349 17.011C53.4151 16.9016 53.2746 16.8171 53.1217 16.7626C52.9687 16.708 52.8064 16.6845 52.6442 16.6934C52.1878 16.6934 51.863 16.8104 51.6426 17.0508C51.4222 17.2912 51.3048 17.7194 51.3048 18.4202C51.3048 19.121 51.4157 19.49 51.6233 19.7496C51.7934 19.9579 52.1698 20.1264 52.6648 20.1264C53.321 20.1264 53.7889 19.7946 53.8804 19.3742V18.901H52.3954V17.9804H54.9143V19.5632C54.9143 20.192 54.9207 20.9249 54.9207 20.9441L54.0209 20.9493Z" fill="white"/>
<path d="M55.6655 20.9493V15.8254H56.7973V19.9966H59.3664V20.9493H55.6655Z" fill="white"/>
<path d="M63.9891 16.5712C64.2882 16.9672 64.4248 17.5574 64.4248 18.3559C64.4248 19.1916 64.2624 19.7703 63.9698 20.2035C63.6127 20.7358 62.9295 21.0213 61.9215 21.0213C60.9135 21.0213 60.2573 20.7487 59.886 20.2164C59.5676 19.7818 59.4181 19.1723 59.4181 18.3687C59.4181 17.6088 59.5547 17.0187 59.8602 16.6175C60.247 16.0852 60.8812 15.7483 61.9228 15.7483C62.9424 15.7483 63.5998 16.0402 63.9891 16.5712ZM62.9424 19.7304C63.1899 19.4835 63.2943 18.9461 63.2943 18.3816C63.2943 17.8171 63.1899 17.3041 62.9746 17.0778C62.7594 16.8515 62.4874 16.6818 61.9215 16.6818C61.3556 16.6818 61.1016 16.8373 60.8812 17.0842C60.6788 17.3106 60.5628 17.8364 60.5628 18.388C60.5628 18.9653 60.6917 19.4964 60.9495 19.7561C61.1584 19.9644 61.4316 20.1007 61.9318 20.1007C62.4616 20.1007 62.7349 19.9374 62.9424 19.7304Z" fill="white"/>
<path d="M68.2418 20.9493H65.1274V15.8254H68.0278C68.5809 15.8254 68.983 15.9874 69.2177 16.2112C69.3284 16.3276 69.4143 16.4653 69.4701 16.6158C69.526 16.7663 69.5506 16.9266 69.5425 17.0868C69.5608 17.4284 69.4441 17.7635 69.2177 18.0203C69.0789 18.1482 68.9084 18.2369 68.7239 18.2775C69.0225 18.3198 69.2988 18.4589 69.5103 18.6735C69.6984 18.8676 69.79 19.1878 69.79 19.5555C69.8025 19.9089 69.6767 20.2533 69.4394 20.516C69.179 20.7809 68.7948 20.9493 68.2418 20.9493ZM68.1902 16.8631C68.0472 16.7605 67.8721 16.7122 67.6966 16.7268H66.227V17.9663H67.8048C67.9467 17.9738 68.0858 17.9248 68.1915 17.83C68.2547 17.7635 68.3034 17.6848 68.3346 17.5988C68.3659 17.5128 68.3791 17.4212 68.3733 17.3299C68.3759 17.2439 68.3611 17.1583 68.3299 17.0781C68.2986 16.9979 68.2516 16.9248 68.1915 16.8631H68.1902ZM68.6131 19.4707C68.6207 19.3807 68.6077 19.2902 68.5751 19.206C68.5425 19.1218 68.4912 19.0461 68.4249 18.9846C68.2815 18.8805 68.107 18.8279 67.9299 18.8355H66.227V20.0416H67.917C68.099 20.0523 68.2798 20.0045 68.4326 19.9053C68.4945 19.8518 68.5431 19.7847 68.5744 19.7093C68.6057 19.6338 68.619 19.5521 68.6131 19.4707Z" fill="white"/>
<path d="M71.1563 20.9493H70.0051L71.9955 15.8254H73.4136L75.2929 20.9493H74.1226L73.6867 19.7432H71.6177L71.1563 20.9493ZM72.8025 17.2398L72.6851 16.8181L72.5561 17.2463L71.971 18.8162H73.348L72.8025 17.2398Z" fill="white"/>
<path d="M75.7786 20.9493V15.8254H76.9106V19.9966H79.4795V20.9493H75.7786Z" fill="white"/>
<path d="M23.0588 16.3294V0H6.68768V4.83067H9.67829V2.98301H20.0669V13.3438H16.3711V6.6719H0V23.0013H16.3711V18.1719H13.3805V20.017H2.99064V9.6549H6.68897V16.3294H23.0588ZM13.3779 13.3451H9.67959V9.6549H13.3779V13.3451Z" fill="#1C6FE8"/>
<path d="M93.4466 5.03511L92.329 3.44589L90.0087 0H87.0428L90.6868 5.2074L86.8151 10.5215H89.7111L89.768 10.4392L92.0653 7.13993L94.3467 10.5215H97.3011L93.4466 5.03511Z" fill="#020003"/>
<path d="M94.0101 1.81552H95.4801V3.24659H97.3018V0H94.0454V1.81552H94.0101Z" fill="#1C6FE8"/>
</g>
<defs>
<clipPath id="clip0">
<rect width="98" height="23" fill="white"/>
</clipPath>
</defs>
</svg>
