<svg width="83" height="32" viewBox="0 0 83 32" fill="none" xmlns="http://www.w3.org/2000/svg">
<path d="M59.3608 23.8656V2.82349H63.5903V23.8656H59.3608Z" fill="#F7A600"/>
<path d="M10.0674 30.116H1V9.07397H9.70274C13.9323 9.07397 16.3968 11.3791 16.3968 14.9848C16.3968 17.3189 14.814 18.8272 13.7185 19.3294C15.0262 19.9202 16.7 21.2498 16.7 24.0587C16.7 27.988 13.9323 30.116 10.0674 30.116ZM9.36796 12.7393H5.22955V17.5861H9.36796C11.1629 17.5861 12.1672 16.6106 12.1672 15.1619C12.1672 13.7147 11.1629 12.7393 9.36796 12.7393ZM9.64142 21.2804H5.22955V26.4523H9.64142C11.559 26.4523 12.4705 25.2709 12.4705 23.8511C12.4705 22.4329 11.5573 21.2804 9.64142 21.2804Z" fill="black"/>
<path d="M29.6007 21.4864V30.116H25.4009V21.4864L18.8892 9.07397H23.4834L27.5306 17.5555L31.5166 9.07397H36.1108L29.6007 21.4864Z" fill="black"/>
<path d="M48.1018 30.116H39.0344V9.07397H47.7372C51.9668 9.07397 54.4312 11.3791 54.4312 14.9848C54.4312 17.3189 52.8485 18.8272 51.7529 19.3294C53.0606 19.9202 54.7346 21.2498 54.7346 24.0587C54.7346 27.988 51.9668 30.116 48.1018 30.116ZM47.4024 12.7393H43.264V17.5861H47.4024C49.1973 17.5861 50.2017 16.6106 50.2017 15.1619C50.2017 13.7147 49.1973 12.7393 47.4024 12.7393ZM47.6758 21.2804H43.264V26.4523H47.6758C49.5934 26.4523 50.5049 25.2709 50.5049 23.8511C50.5049 22.4329 49.5934 21.2804 47.6758 21.2804Z" fill="black"/>
<path d="M77.2221 12.7393V30.1176H72.9926V12.7393H67.3327V9.07397H82.882V12.7393H77.2221Z" fill="black"/>
</svg>
