<svg width="127" height="20" viewBox="0 0 127 20" fill="none" xmlns="http://www.w3.org/2000/svg">
<g clip-path="url(#clip0)">
<path fill-rule="evenodd" clip-rule="evenodd" d="M32.7557 13.0969C33.0004 13.637 33.3242 14.1374 33.7166 14.5815C32.864 15.0423 31.9714 15.2477 30.9975 15.2477C28.1016 15.2477 26 13.3323 26 10.2754C26 7.19692 28.2091 5.28231 30.9975 5.28231C31.9899 5.28231 32.7718 5.49769 33.5607 5.92077C33.1863 6.38492 32.8827 6.90208 32.6597 7.45539C32.1921 7.26844 31.6929 7.17388 31.1895 7.17692C29.4743 7.17692 28.1438 8.27462 28.1438 10.2769C28.1438 12.1708 29.4312 13.3762 31.2763 13.3762C31.8048 13.3762 32.2925 13.28 32.7557 13.0977V13.0969ZM38.5797 5.28154C41.4317 5.28154 43.4903 7.30539 43.4903 10.2754C43.4903 13.2246 41.4317 15.2477 38.5797 15.2477C35.7491 15.2477 33.6897 13.2246 33.6897 10.2754C33.6897 7.30616 35.7483 5.28231 38.5797 5.28231V5.28154ZM38.5797 7.11154C36.9927 7.11154 35.8344 8.33846 35.8344 10.2754C35.8344 12.1915 36.9927 13.4177 38.5797 13.4177C40.2096 13.4177 41.3465 12.1915 41.3465 10.2754C41.3465 8.33846 40.2096 7.11154 38.5797 7.11154ZM44.8422 15.0323V5.49692H46.9646V15.0323H44.8422ZM44.5626 2.57C44.5626 1.83846 45.1848 1.25692 45.8923 1.25692C46.6005 1.25692 47.2227 1.83846 47.2227 2.57C47.2227 3.32385 46.6005 3.92616 45.8923 3.92616C45.1856 3.92616 44.5626 3.32308 44.5626 2.57ZM48.8165 6.10077C50.1462 5.58385 51.7769 5.28231 53.1703 5.28231C55.5937 5.28231 57.1384 6.20769 57.1384 8.89769V15.0323H55.0368V9.09231C55.0368 7.71462 54.1788 7.21923 52.999 7.21923C52.2478 7.21923 51.4981 7.32692 50.9404 7.49923V15.0323H48.8165V6.1V6.10077ZM58.9159 0.395386H61.039V5.75539C61.4891 5.51846 62.3679 5.28154 63.2051 5.28154C65.9497 5.28154 68.009 7.04615 68.009 10.1031C68.009 13.18 65.9712 15.2469 62.4554 15.2469C61.2486 15.2432 60.0513 15.0319 58.9159 14.6223V0.396155V0.395386ZM61.039 13.2238C61.4461 13.3523 61.983 13.4169 62.5184 13.4169C64.4695 13.4169 65.8644 12.3415 65.8644 10.1454C65.8644 8.29462 64.5563 7.19692 62.9478 7.19692C62.1113 7.19692 61.4676 7.41231 61.039 7.64923V13.2238ZM74.1418 8.63923C74.1418 7.60539 73.369 7.13231 72.319 7.13231C71.2252 7.13231 70.3672 7.45539 69.5737 7.90692V6.05616C70.4094 5.58385 71.4817 5.28231 72.6616 5.28231C74.7417 5.28231 76.2219 6.14308 76.2219 8.53154V14.8385C75.3208 15.0754 74.0342 15.2262 72.9627 15.2262C70.4962 15.2262 68.6942 14.4723 68.6942 12.32C68.6942 10.3831 70.3457 9.43692 73.0902 9.43692H74.1418V8.63846V8.63923ZM74.1418 10.8562H73.24C71.7598 10.8562 70.795 11.2862 70.795 12.2546C70.795 13.2454 71.696 13.6323 72.9827 13.6323C73.3053 13.6323 73.7554 13.5892 74.141 13.5246V10.8562H74.1418ZM77.7658 12.4485C78.6453 13.1162 79.6953 13.5254 80.6601 13.5254C81.6049 13.5254 82.2271 13.2023 82.2271 12.4485C82.2271 11.6738 81.6687 11.3938 80.4466 11.0715C78.4732 10.6192 77.6367 9.82308 77.6367 8.16539C77.6367 6.22769 79.0954 5.28077 81.0257 5.28077C82.0973 5.28077 82.9553 5.51846 83.7488 6.01308V7.97154C82.913 7.36923 82.0973 7.00308 81.0903 7.00308C80.1677 7.00308 79.6746 7.45539 79.6746 8.08C79.6746 8.70308 80.0817 9.02616 81.1755 9.32769C83.3417 9.80154 84.2857 10.62 84.2857 12.3415C84.2857 14.3431 82.7625 15.2469 80.7039 15.2469C79.5886 15.2469 78.4732 14.9462 77.7658 14.4723V12.4492V12.4485ZM87.1908 10.7485V10.7915C87.3198 12.4915 88.7777 13.4169 90.2579 13.4169C91.566 13.4169 92.51 13.1154 93.4533 12.4915V14.3646C92.5953 14.9669 91.3302 15.2469 90.1081 15.2469C87.1485 15.2469 85.1322 13.3523 85.1322 10.3392C85.1322 7.30462 87.1047 5.28154 89.7217 5.28154C92.4878 5.28154 93.7959 7.06769 93.7959 9.67154V10.7485H87.1915H87.1908ZM91.8018 9.37154C91.7588 7.88539 91.0299 7.06769 89.6572 7.06769C88.4351 7.06769 87.5341 7.92923 87.2553 9.37077H91.8018V9.37154Z" fill="#1C1C1C"/>
<path d="M102.139 0.384615C102.139 0.172198 101.967 0 101.755 0C101.543 0 101.37 0.172198 101.37 0.384615V19.6154C101.37 19.8278 101.543 20 101.755 20C101.967 20 102.139 19.8278 102.139 19.6154V0.384615Z" fill="#1C1C1C"/>
<path fill-rule="evenodd" clip-rule="evenodd" d="M110.625 11.4884V15.0499H109.634V5.50533C110.066 5.44072 110.753 5.36072 111.312 5.36072C113.933 5.36072 115.036 6.57995 115.036 8.3761C115.036 10.413 113.614 11.5199 111.233 11.5199C111.057 11.5199 110.833 11.5046 110.626 11.4876L110.625 11.4884ZM110.625 6.24379V10.6546C110.802 10.6699 110.977 10.6699 111.136 10.6699C113.103 10.6699 114.029 9.9161 114.029 8.37764C114.029 7.14226 113.31 6.21149 111.264 6.21149C111.072 6.21149 110.849 6.22764 110.625 6.24379ZM116.824 9.21072V15.0492H115.864V8.69764C116.639 8.20685 117.536 7.94551 118.453 7.94379C118.837 7.94379 119.221 7.99226 119.62 8.08841V9.03456C119.205 8.88995 118.709 8.85764 118.389 8.85764C117.702 8.85764 117.191 9.00226 116.823 9.21149L116.824 9.21072ZM119.601 11.553C119.601 9.38764 121.024 7.8961 123.102 7.8961C125.179 7.8961 126.601 9.38764 126.601 11.553C126.601 13.7184 125.179 15.21 123.102 15.21C121.024 15.21 119.601 13.7176 119.601 11.553ZM125.626 11.553C125.626 9.85303 124.572 8.72995 123.102 8.72995C121.631 8.72995 120.576 9.85303 120.576 11.553C120.576 13.253 121.631 14.3761 123.102 14.3761C124.572 14.3761 125.626 13.253 125.626 11.553Z" fill="#1C1C1C"/>
</g>
<path d="M5.01562 4.76562H7.59375V15.2344H5.01562V4.76562Z" fill="#0E70E2"/>
<path d="M8.6875 2.42188H11.2656V17.5781H8.6875V2.42188Z" fill="#0E70E2"/>
<path d="M12.3594 4.76562H14.9375V15.2344H12.3594V4.76562Z" fill="#0E70E2"/>
<defs>
<clipPath id="clip0">
<rect width="100.625" height="20" fill="white" transform="translate(26)"/>
</clipPath>
</defs>
</svg>
