<svg width="94" height="27" viewBox="0 0 94 27" fill="none" xmlns="http://www.w3.org/2000/svg">
<path d="M18.7518 4.49461H17.9637V0H13.4768V4.49461H8.98991V0H4.48691V4.49461H0V8.98922H4.48691V17.9946H0V22.4892H4.48691V27H8.97382V22.5054H13.4607V27H17.9476V22.5054H18.7357C23.689 22.5054 27.7256 18.4796 27.7256 13.5C27.7417 8.53653 23.7211 4.49461 18.7518 4.49461ZM18.7518 18.0108H8.98991V9.00539H18.7678C21.2445 9.00539 23.2548 11.0263 23.2548 13.5C23.2548 15.9898 21.2284 18.0108 18.7518 18.0108Z" fill="#15C8B1"/>
<path d="M39.4655 6.59644H34.078V20.0803H39.4655C43.1805 20.0803 46.0109 17.1539 46.0109 13.3383C46.0109 9.52278 43.1805 6.59644 39.4655 6.59644ZM39.4655 17.1216H37.1497V9.57129H39.4494C41.5723 9.57129 43.0197 11.0425 43.0197 13.3545C43.0197 15.6665 41.5723 17.1216 39.4655 17.1216Z" fill="#1B2431"/>
<path d="M50.2084 16.4263H57.0433C57.1238 16.0545 57.1559 15.6826 57.1559 15.2623C57.1559 12.3521 55.0813 10.1694 52.2669 10.1694C49.2274 10.1694 47.1528 12.3844 47.1528 15.2623C47.1528 18.1401 49.1953 20.3551 52.476 20.3551C54.3094 20.3551 55.7246 19.676 56.6735 18.3664L54.3737 17.0407C53.9877 17.4611 53.3123 17.7682 52.5243 17.7682C51.4628 17.7844 50.5783 17.4287 50.2084 16.4263ZM50.1602 14.276C50.4336 13.2898 51.1573 12.7563 52.2509 12.7563C53.1193 12.7563 53.9877 13.1605 54.2933 14.276H50.1602Z" fill="#1B2431"/>
<path d="M61.675 12.1743V10.4605H58.7963V20.0964H61.675V15.7312C61.675 13.8234 63.3636 13.3383 64.5537 13.5323V10.2665C63.3475 10.2665 62.0609 10.8809 61.675 12.1743Z" fill="#1B2431"/>
<path d="M67.352 9.60356C68.3008 9.60356 69.0889 8.81134 69.0889 7.87362C69.0889 6.93589 68.3008 6.14368 67.352 6.14368C66.4031 6.14368 65.6151 6.93589 65.6151 7.87362C65.6151 8.81134 66.4031 9.60356 67.352 9.60356ZM65.9046 20.0964H68.7833V10.4604H65.9046V20.0964Z" fill="#1B2431"/>
<path d="M76.6634 10.1857C75.3769 10.1857 74.428 10.6222 73.8008 11.3659V6.59644H70.9221V20.0803H73.8008V19.1749C74.428 19.9024 75.3769 20.3551 76.6634 20.3551C79.1883 20.3551 81.2629 18.1402 81.2629 15.2623C81.2468 12.4006 79.1723 10.1857 76.6634 10.1857ZM76.0845 17.6228C74.7497 17.6228 73.8008 16.7174 73.8008 15.2785C73.8008 13.8396 74.7657 12.9342 76.0845 12.9342C77.4193 12.9342 78.3681 13.8396 78.3681 15.2785C78.3681 16.7174 77.4032 17.6228 76.0845 17.6228Z" fill="#1B2431"/>
<path d="M84.3347 9.60356C85.2835 9.60356 86.0715 8.81134 86.0715 7.87362C86.0715 6.93589 85.2835 6.14368 84.3347 6.14368C83.3858 6.14368 82.5978 6.93589 82.5978 7.87362C82.5978 8.81134 83.3858 9.60356 84.3347 9.60356ZM82.8873 20.0964H85.766V10.4604H82.8873V20.0964Z" fill="#1B2431"/>
<path d="M93.5336 13.2252V10.4605H91.5555V7.7605L88.6768 8.63355V10.4605H87.1329V13.2413H88.6768V16.6527C88.6768 19.3527 89.7704 20.4845 93.5497 20.0964V17.4611C92.2792 17.5419 91.5716 17.4611 91.5716 16.6365V13.2252H93.5336Z" fill="#1B2431"/>
</svg>
