<svg width="210" height="64" viewBox="0 0 210 64" fill="none" xmlns="http://www.w3.org/2000/svg">
<path d="M104.361 24.2213V32.9893H122.329V41.7004H104.361V55.3651H92.8481V15.5101H124.771V24.2213H104.361Z" fill="black"/>
<path d="M141.458 24.449H128.957V15.5101H165.415V24.449H152.971V55.3651H141.458V24.449Z" fill="black"/>
<path d="M195.998 55.3651L187.567 43.0103L179.252 55.3651H166.11L180.938 35.2099L166.75 15.5101H179.717L187.858 27.0105L195.882 15.5101H208.326L194.137 34.7545L209.256 55.3651H195.998Z" fill="black"/>
<path d="M38.7415 46.991H21.3706V64H38.7415V46.991Z" fill="#89ECF5"/>
<path d="M54.1532 23.4927H21.3706V40.5017H54.1532V40.4999H60.1144V23.495H54.1532V23.4927Z" fill="#00CBE0"/>
<path d="M75.1808 0H21.3706V17.0033H75.1808V0Z" fill="#00A8C5"/>
<path d="M17.3651 23.4927H0V40.5017H17.3651V23.4927Z" fill="#00CBE0"/>
</svg>
