<svg width="152" height="71" viewBox="0 0 152 71" fill="none" xmlns="http://www.w3.org/2000/svg">
<rect y="0.59082" width="152" height="70" rx="10" fill="white"/>
<g clip-path="url(#clip0_129_5)">
<path d="M73.8623 31.0809V35.6015H83.1355V40.0927H73.8623V47.1406H67.9199V26.5868H84.396V31.0809H73.8623Z" fill="#131112"/>
<path d="M93.0081 31.1984H86.5557V26.5868H105.372V31.1984H98.9502V47.1406H93.0081V31.1984Z" fill="#131112"/>
<path d="M121.157 47.1406L116.806 40.7678L112.514 47.1406H105.731L113.384 36.7463L106.062 26.5868H112.754L116.956 32.5193L121.097 26.5868H127.52L120.197 36.5115L128 47.1406H121.157Z" fill="#131112"/>
<path d="M31.0293 51.5908H39.9946V42.8227H31.0293V51.5908Z" fill="#84D6D7"/>
<path d="M47.9488 30.7026H31.0293V39.4736H47.9488H51.0258V30.7055H47.9488V30.7026Z" fill="#33BBC7"/>
<path d="M31.0293 18.5908V27.3589H58.8015V18.5908H31.0293Z" fill="#11A9BC"/>
<path d="M20 39.4736H28.9623V30.7026H20V39.4736Z" fill="#33BBC7"/>
</g>
<defs>
<clipPath id="clip0_129_5">
<rect width="108" height="33" fill="white" transform="translate(20 18.5908)"/>
</clipPath>
</defs>
</svg>
