<svg width="104" height="25" viewBox="0 0 104 25" fill="none" xmlns="http://www.w3.org/2000/svg">
<path d="M9.89316 12.303L9.67447 12.0851C9.50889 11.9214 9.22446 12.0373 9.22446 12.2694V15.3818C9.22446 15.5255 9.34359 15.6425 9.48914 15.6425H12.6338C12.8683 15.6425 12.9863 15.3613 12.8196 15.1979C12.7168 15.0961 12.7168 14.9313 12.8196 14.8297L16.1642 11.5084C16.2673 11.4072 16.2673 11.2425 16.1642 11.1402L15.8595 10.8397C15.6939 10.676 15.8119 10.3948 16.0457 10.3948H19.1885C19.3338 10.3948 19.4527 10.5116 19.4527 10.6555V13.7675C19.4527 13.9997 19.1677 14.1159 19.0018 13.9519L18.79 13.7423C18.6865 13.6376 18.5201 13.6376 18.4188 13.7423L12.7797 19.3221C12.6773 19.4237 12.5111 19.4237 12.4074 19.3221L5.50842 12.4923C5.40472 12.3896 5.40472 12.2246 5.50842 12.1226L15.059 2.66817C15.1616 2.56639 15.1616 2.40033 15.059 2.299L12.8132 0.0759974C12.7104 -0.0253325 12.544 -0.0253325 12.4407 0.0759974L0.0767674 12.3164C-0.0255891 12.4182 -0.0255891 12.5842 0.0767674 12.6855L12.4394 24.9241C12.5423 25.0253 12.7101 25.0253 12.8124 24.9241L25.1745 12.6855C25.2767 12.5838 25.2767 12.4186 25.1745 12.3172L17.9014 5.11696C17.7997 5.01563 17.6323 5.01563 17.5293 5.11696L10.2674 12.3031C10.1637 12.4057 9.99687 12.4057 9.89316 12.3031V12.303Z" fill="#DE5959"/>
<path d="M82.5941 16.318C82.1765 16.318 81.8164 16.4666 81.5144 16.7656C81.2164 17.0649 81.0641 17.4181 81.0641 17.8272C81.0641 18.4507 81.3824 18.9359 82.0145 19.2824C82.7077 19.4706 83.2649 19.3481 83.6843 18.9216C83.9883 18.6205 84.1367 18.2595 84.1367 17.8389C84.1367 17.4143 83.9883 17.0592 83.6843 16.7657C83.3834 16.4696 83.0222 16.3221 82.5931 16.3221V16.3181H82.5941V16.318ZM57.9862 4.74786H56.8449C56.3518 4.74786 55.9502 5.14252 55.9502 5.63373V6.26673C54.7373 5.01129 53.3614 4.38303 51.8247 4.38303C50.0519 4.38303 48.5719 5.03916 47.3908 6.34776C46.2074 7.65626 45.6191 9.29292 45.6191 11.2557C45.6191 13.2522 46.2084 14.9227 47.3884 16.2581C48.5816 17.5674 50.0859 18.2208 51.9082 18.2208C53.3494 18.2208 54.6975 17.636 55.9514 16.4693V17.7209C55.9514 18.3288 56.4484 18.8229 57.0585 18.8229H59.007V5.76218C59.0068 5.20339 58.5495 4.74786 57.9861 4.74786H57.9862ZM55.1012 14.3601C54.4053 15.1313 53.4964 15.5162 52.3673 15.5162C51.3115 15.5162 50.4359 15.1196 49.7428 14.3206C49.0666 13.534 48.7287 12.5093 48.7287 11.2539C48.7287 10.0805 49.0767 9.09232 49.7696 8.29539C50.4725 7.50586 51.3476 7.11416 52.3941 7.11416C53.5038 7.11416 54.4043 7.50408 55.0984 8.28768C55.794 9.08471 56.142 10.096 56.142 11.3235C56.142 12.5518 55.7941 13.5642 55.0984 14.3621H55.1014V14.3601H55.1012ZM45.6171 6.95872V5.66465C45.6171 5.15704 45.2055 4.74983 44.6967 4.74983H43.4934C42.9866 4.74983 42.574 5.15517 42.574 5.66268V6.22622C41.4735 4.99875 40.0937 4.38313 38.4344 4.38313C36.5406 4.38313 35.0146 5.0943 33.8612 6.50803C32.7875 7.84163 32.2511 9.46475 32.2511 11.3754C32.2511 13.3373 32.8292 14.9758 33.9846 16.2833C35.13 17.5774 36.5995 18.2191 38.3946 18.2191C39.9711 18.2191 41.3653 17.6074 42.5739 16.3789V18.2075C42.5739 20.9249 41.4605 22.2836 39.2336 22.2836C38.0246 22.2836 37.1062 21.8745 36.4751 21.0581C36.314 20.8516 36.1804 20.5949 36.0742 20.2852C35.925 19.8519 35.5105 19.5644 35.0522 19.5644H33.899C33.3174 19.5644 32.885 20.1144 33.0319 20.674C33.3474 21.8667 33.9566 22.8356 34.8634 23.5844C35.9999 24.5261 37.4484 24.9972 39.2056 24.9972C41.2885 24.9972 42.9259 24.3158 44.117 22.9553C44.7481 22.247 45.1704 21.3997 45.3873 20.4135C45.4597 20.0583 45.5166 19.6405 45.5564 19.1686C45.5961 18.6996 45.616 18.1554 45.616 17.5359V15.6327C44.764 14.4131 44.3355 12.9549 44.3355 11.2557C44.3355 9.58531 44.763 8.15803 45.616 6.95863H45.617L45.6171 6.95872ZM41.7618 14.2568C41.0858 15.0974 40.1672 15.5161 39.0023 15.5161C37.8388 15.5161 36.9281 15.1011 36.2684 14.2646C35.6656 13.5042 35.3635 12.5256 35.3635 11.3349C35.3635 10.1229 35.6655 9.13669 36.2684 8.37641C36.9375 7.52612 37.8471 7.10072 39.0023 7.10072C40.0839 7.10072 40.9727 7.49044 41.6663 8.2692C42.352 9.03066 42.6962 10.0479 42.6962 11.3226C42.6962 12.5143 42.3841 13.4907 41.7617 14.2551V14.257L41.7618 14.2568ZM70.9196 4.75754V4.74786H64.6071V0.905266C64.6071 0.411195 64.2053 0.0116894 63.7072 0.0116894H62.4747C61.9729 0.0116894 61.5651 0.417026 61.5651 0.916828V4.74786H60.2647V7.56851H61.5633V18.8212H63.299C64.0228 18.8212 64.6053 18.2421 64.6053 17.5223V7.57048H67.7265C67.9731 7.1025 68.2716 6.67108 68.6265 6.27641C69.2732 5.57384 70.0382 5.06821 70.9178 4.75764H70.9198L70.9196 4.75754ZM86.451 0.0116894C85.9112 0.0116894 85.4471 0.205662 85.0588 0.592718C84.6724 0.977599 84.4763 1.436 84.4763 1.96386C84.4763 2.52078 84.6705 2.98778 85.0588 3.37671C85.4471 3.76169 85.9171 3.95378 86.4665 3.95378C87.017 3.95378 87.4811 3.76179 87.8567 3.37473C88.2451 2.9859 88.4413 2.52463 88.4413 1.97651C88.4413 1.43046 88.247 0.967223 87.8577 0.592816C87.4674 0.203883 86.9985 0.0100098 86.449 0.0100098L86.451 0.011789V0.0116894ZM87.0676 6.23204H85.9636C85.3976 6.23204 84.9365 6.6856 84.9365 7.25299V16.8566C85.1695 17.1287 85.2811 17.45 85.2811 17.8206C85.2811 18.1911 85.1714 18.5154 84.9365 18.7886V19.3291H86.8957C87.4957 19.3291 87.9811 18.8446 87.9811 18.2481V7.1354C87.9811 6.6354 87.5715 6.23027 87.0665 6.23027L87.0675 6.23224L87.0676 6.23204ZM101.373 8.08481C100.002 6.75121 98.3331 6.08343 96.3671 6.08343C94.4098 6.08343 92.7497 6.74548 91.3886 8.07523C90.0276 9.39914 89.346 11.0088 89.346 12.9001C89.346 14.9064 90.012 16.5767 91.3479 17.9036C92.6838 19.2479 94.34 19.9194 96.3126 19.9194C98.3048 19.9194 99.9863 19.2613 101.358 17.9431C102.716 16.6134 103.4 14.972 103.4 13.0083C103.4 11.0619 102.724 9.42137 101.373 8.08491V8.08481ZM99.2194 16.073C98.5088 16.8363 97.5573 17.2136 96.3653 17.2136C95.1827 17.2136 94.2332 16.8305 93.5109 16.0574C92.808 15.2972 92.4546 14.2588 92.4546 12.9522C92.4546 11.7344 92.8177 10.7386 93.5381 9.96851C94.2604 9.19647 95.202 8.81139 96.3671 8.81139C97.5466 8.81139 98.499 9.19647 99.2193 9.96851C99.932 10.7289 100.289 11.746 100.289 13.0179C100.289 14.2936 99.9301 15.3096 99.2193 16.071V16.0749V16.073H99.2194Z" fill="#DE5959"/>
<path d="M72.0535 15.5441C71.4262 14.913 71.0758 14.0522 70.9952 12.9753H79.7192C80.1172 12.9753 80.4454 12.6588 80.4512 12.2642C80.4512 10.0997 79.892 8.41486 78.7746 7.195C77.6455 5.96674 76.1096 5.35291 74.1737 5.35291C72.2554 5.35291 70.7118 5.98492 69.5488 7.24915C68.394 8.53245 67.8173 10.2067 67.8173 12.2785C67.8173 14.3658 68.4139 16.0429 69.6012 17.3062C70.4323 18.1851 71.4507 18.7535 72.6594 19.0179C73.1662 19.1365 73.6913 19.1993 74.2225 19.1916C76.3894 19.2361 78.2748 19.2804 80.4418 19.3248L80.4456 19.0083C80.1806 18.7218 80.0475 18.3754 80.0475 17.974C80.0475 17.5822 80.1863 17.2454 80.4571 16.954L80.4591 16.5709C78.7505 16.5284 74.607 16.4879 74.442 16.4879C73.4711 16.4879 72.6731 16.1762 72.0538 15.5462V15.5442L72.0535 15.5441ZM71.6302 9.49569C71.8215 9.19826 72.0477 8.94747 72.3146 8.7371C72.5836 8.52287 72.8748 8.36456 73.201 8.25271C73.5253 8.14075 73.8729 8.08472 74.2457 8.08472C75.8651 8.08472 76.8903 8.88967 77.3173 10.5031H71.1982C71.2982 10.1266 71.4418 9.79095 71.6303 9.49371V9.49569H71.6302Z" fill="#DE5959"/>
</svg>
