<svg width="88" height="26" viewBox="0 0 88 26" fill="none" xmlns="http://www.w3.org/2000/svg">
<g clip-path="url(#clip0)">
<path d="M32.6774 6.48072V13.817H25.2745V7.42805C25.2745 6.90298 24.8419 6.47705 24.3086 6.47705H21.8024V24.0393C21.8024 24.5643 22.235 24.9903 22.7683 24.9903H25.2745V16.7985H32.6812V24.0356C32.6737 24.5607 33.0989 24.9939 33.6322 25.0013H33.6471H36.1533V7.42805C36.1533 6.90298 35.7207 6.47705 35.1874 6.47705H32.6774V6.48072ZM47.3789 11.0705V19.8718C47.3864 20.6722 46.9612 21.4176 46.2601 21.8288C44.2984 22.9451 42.2658 21.5461 42.2658 19.7102V12.0215C42.2658 11.4964 41.8332 11.0705 41.2999 11.0705H38.7937V20.026C38.8012 22.912 41.1731 25.2473 44.1045 25.262H45.5291C48.4642 25.2546 50.8436 22.912 50.851 20.0223V12.0215C50.851 11.4964 50.4184 11.0705 49.8851 11.0705H47.3789Z" fill="#1B2143"/>
<path d="M85.2962 25.0012H87.8023V12.5318C87.8023 12.0067 87.3697 11.5808 86.8364 11.5808H84.3302V24.0429C84.3265 24.568 84.7554 24.9976 85.2887 25.0012H85.2962Z" fill="#2CA6E0"/>
<path d="M87.8553 9.08675C88.2644 8.11437 87.7954 6.99959 86.8078 6.59681C85.8201 6.19403 84.6878 6.65578 84.2787 7.62816C83.8696 8.60053 84.3386 9.71531 85.3263 10.1181C86.3139 10.5209 87.4462 10.0591 87.8553 9.08675Z" fill="#2CA6E0"/>
<path d="M59.8091 11.0631C56.1729 11.0631 53.1968 13.6224 53.1968 17.2024V19.1374C53.1968 22.7174 56.1729 25.262 59.8091 25.262C63.4453 25.262 66.4214 22.7174 66.4214 19.1374V17.2024C66.4251 13.6224 63.449 11.0631 59.8091 11.0631ZM62.9343 19.3687C62.9343 21.0614 61.5283 22.1887 59.8053 22.1887C58.0823 22.1887 56.6801 21.0614 56.6801 19.3687V16.9527C56.6801 15.26 58.0861 14.1327 59.8053 14.1327C61.5246 14.1327 62.9343 15.26 62.9343 16.9527V19.3687Z" fill="#1B2143"/>
<path d="M75.3796 11.0631C74.2906 11.0557 73.2165 11.2981 72.2357 11.7644V7.44636C72.2357 6.92129 71.803 6.49536 71.2697 6.49536H68.7635V19.1374C68.7635 22.7174 71.7396 25.2619 75.3759 25.2619C79.0121 25.2619 81.9882 22.7174 81.9882 19.1374V17.2023C81.9919 13.6223 79.0233 11.0631 75.3796 11.0631ZM78.5086 19.3687C78.5086 21.0614 77.1026 22.1886 75.3796 22.1886C73.6603 22.1886 72.2543 21.0614 72.2543 19.3687V16.9526C72.2543 15.2599 73.6603 14.1327 75.3796 14.1327C77.0989 14.1327 78.5086 15.2599 78.5086 16.9526V19.3687Z" fill="#2CA6E0"/>
<path d="M11.3092 7.99708C11.3092 4.26654 9.46316 1.05371 8.05715 0.0109227C8.05715 0.0109227 7.949 -0.047826 7.96019 0.102718C7.84458 7.31046 4.10394 9.26385 2.04902 11.8929C-2.69484 17.966 1.71337 24.623 6.21108 25.853C8.71727 26.5433 5.62929 24.634 5.23023 20.606C4.74168 15.7446 11.3092 12.0287 11.3092 7.99708Z" fill="#1B2143"/>
<path d="M13.4632 10.4536C13.4334 10.4352 13.3924 10.4206 13.3662 10.4683C13.2879 11.3752 12.3481 13.3139 11.1547 15.0984C7.10824 21.1422 9.41304 24.0576 10.7109 25.6255C11.4642 26.5324 10.7109 25.6255 12.5905 24.6965C14.914 23.3086 16.4207 20.9072 16.6444 18.2415C17.0136 13.9455 14.3956 11.2394 13.4632 10.4536Z" fill="#2CA6E0"/>
</g>
<defs>
<clipPath id="clip0">
<rect width="88" height="26" fill="white"/>
</clipPath>
</defs>
</svg>
