<svg width="100" height="16" viewBox="0 0 100 16" fill="none" xmlns="http://www.w3.org/2000/svg">
<path d="M9.57742 0.533325C4.28776 0.533325 0 4.78901 0 10.0386V14.1119C0 14.8612 0.611898 15.4683 1.36724 15.4683C2.12259 15.4683 2.73897 14.8612 2.73897 14.1119V10.0386C2.73897 9.28703 3.34862 8.68005 4.10621 8.68005C4.86156 8.68005 5.47344 9.28703 5.47344 10.0386V14.1119C5.47344 14.8612 6.08538 15.4683 6.8407 15.4683C7.59828 15.4683 8.21016 14.8612 8.21016 14.1119V10.0386C8.21016 9.28703 8.8221 8.68005 9.57742 8.68005C10.335 8.68005 10.9491 9.28703 10.9491 10.0386V14.1119C10.9491 14.8612 11.5611 15.4683 12.3164 15.4683C13.0717 15.4683 13.6837 14.8612 13.6837 14.1119V10.0386C13.6837 9.28703 14.2955 8.68005 15.0554 8.68005C15.8107 8.68005 16.4226 9.28703 16.4226 10.0386V14.1119C16.4226 14.8612 17.0345 15.4683 17.7921 15.4683C18.5474 15.4683 19.1594 14.8612 19.1594 14.1119V10.0386C19.1594 4.78901 14.8694 0.533325 9.57742 0.533325Z" fill="#5841D8"/>
<path d="M21.3099 0.53479H23.7408V6.87606L30.2277 0.53479H33.4599L27.6753 6.08561L33.7841 15.4635H30.5519L25.8183 7.86742L23.7408 9.86134V15.4658H21.3099V0.53479Z" fill="#5841D8"/>
<path d="M35.1052 0.534998H37.5091V3.11392C37.705 2.61154 38.1889 2.00197 38.9564 1.28076C39.724 0.561793 40.6108 0.200073 41.6124 0.200073C41.6597 0.200073 41.7385 0.204539 41.851 0.213471C41.9636 0.222402 42.1549 0.240265 42.4272 0.269291V2.91966C42.2764 2.89064 42.1391 2.87277 42.0131 2.86385C41.887 2.85491 41.7475 2.85045 41.5989 2.85045C40.325 2.85045 39.3458 3.25682 38.6616 4.06957C37.9773 4.88233 37.6352 5.8179 37.6352 6.87849V15.466H35.1052V0.534998Z" fill="#5841D8"/>
<path d="M51.8493 6.42963C52.43 6.35592 52.8194 6.1148 53.0152 5.70616C53.1278 5.48291 53.184 5.16137 53.184 4.7416C53.184 3.88419 52.8779 3.26123 52.2657 2.87272C51.6535 2.48643 50.7779 2.29218 49.6367 2.29218C48.3178 2.29218 47.3836 2.6472 46.8322 3.35724C46.5238 3.75022 46.3235 4.33299 46.2289 5.10778H43.8678C43.9151 3.26346 44.516 1.97958 45.6708 1.25614C46.8276 0.534936 48.1669 0.173218 49.693 0.173218C51.4622 0.173218 52.8982 0.508143 54.0011 1.17576C55.0973 1.84561 55.6441 2.88611 55.6441 4.2995V12.9003C55.6441 13.1616 55.6984 13.3693 55.8065 13.5278C55.9118 13.6863 56.1393 13.7645 56.4882 13.7645C56.6011 13.7645 56.7269 13.7578 56.8688 13.7444C57.0081 13.731 57.1591 13.7087 57.3188 13.6818V15.5351C56.9247 15.6468 56.6258 15.716 56.421 15.745C56.2135 15.7718 55.9344 15.7874 55.5769 15.7874C54.7054 15.7874 54.0731 15.4815 53.6793 14.8675C53.4744 14.5415 53.3281 14.0815 53.2449 13.4876C52.7294 14.1575 51.9911 14.738 51.0255 15.2292C50.0599 15.7227 48.9975 15.9683 47.836 15.9683C46.4406 15.9683 45.2994 15.5485 44.4148 14.709C43.5302 13.8694 43.0868 12.8177 43.0868 11.5562C43.0868 10.1741 43.5235 9.10232 44.3945 8.34094C45.2656 7.57955 46.409 7.11064 47.8225 6.93422L51.8493 6.42963ZM46.5238 13.2085C47.0573 13.6261 47.6897 13.8337 48.4212 13.8337C49.3103 13.8337 50.1724 13.6305 51.0075 13.2219C52.412 12.5454 53.1143 11.4357 53.1143 9.89496V7.87651C52.8059 8.07299 52.4075 8.23598 51.9213 8.36547C51.4351 8.49502 50.958 8.58878 50.4921 8.64462L48.9637 8.83886C48.0476 8.95944 47.3589 9.1492 46.8974 9.40824C46.1142 9.8436 45.7247 10.5403 45.7247 11.4937C45.7225 12.2216 45.9904 12.791 46.5238 13.2085Z" fill="#5841D8"/>
<path d="M61.3951 0.534912V6.87617L67.8822 0.534912H71.1118L65.3274 6.08577L71.436 15.4636H68.2037L63.4704 7.86753L61.393 9.86145V15.4659H58.9618V0.534912H61.3951Z" fill="#5841D8"/>
<path d="M81.7537 0.94582C82.751 1.44374 83.5097 2.0868 84.0295 2.87722C84.5317 3.62969 84.8666 4.50719 85.0355 5.51196C85.1844 6.1997 85.2586 7.29602 85.2586 8.80092H74.3129C74.3602 10.3193 74.7177 11.5384 75.3865 12.4561C76.0548 13.3738 77.0924 13.8337 78.4946 13.8337C79.8048 13.8337 80.8516 13.4005 81.6322 12.532C82.0693 12.0274 82.3795 11.4446 82.5618 10.7815H85.0494C84.9838 11.3307 84.7656 11.9403 84.3962 12.6146C84.0274 13.2889 83.6134 13.8382 83.1586 14.2669C82.3957 15.0105 81.4521 15.5128 80.3269 15.7719C79.7236 15.9215 79.0392 15.9951 78.2763 15.9951C76.415 15.9951 74.8371 15.3186 73.543 13.9677C72.2489 12.6146 71.6027 10.7234 71.6027 8.28738C71.6027 5.8893 72.2532 3.94228 73.5586 2.44628C74.8618 0.950284 76.5656 0.202285 78.6704 0.202285C79.7279 0.200053 80.757 0.45013 81.7537 0.94582ZM82.6586 6.80924C82.5575 5.72183 82.3188 4.85328 81.9473 4.20353C81.2613 2.99556 80.1129 2.39047 78.5059 2.39047C77.3537 2.39047 76.3881 2.80577 75.6091 3.63862C74.8279 4.47147 74.4161 5.52759 74.3688 6.80924H82.6586Z" fill="#5841D8"/>
<path d="M89.8839 0.534998V2.65396C90.5952 1.78092 91.3495 1.15349 92.1462 0.771681C92.943 0.389864 93.8274 0.200073 94.8021 0.200073C96.9382 0.200073 98.3812 0.939142 99.1306 2.41728C99.5425 3.22556 99.7495 4.38217 99.7495 5.88932V15.466H97.1769V6.05678C97.1769 5.1458 97.0419 4.4112 96.7693 3.85522C96.3193 2.92636 95.5043 2.46194 94.3247 2.46194C93.7263 2.46194 93.2333 2.52222 92.8484 2.6428C92.1548 2.84821 91.5473 3.25682 91.0204 3.86862C90.6 4.36208 90.3253 4.86893 90.1989 5.39588C90.0731 5.92281 90.0102 6.67081 90.0102 7.6466V15.466H87.4801V0.534998H89.8839Z" fill="#5841D8"/>
</svg>
