<svg width="96" height="22" viewBox="0 0 96 22" fill="none" xmlns="http://www.w3.org/2000/svg">
<path d="M75.0176 10.9899C75.0176 10.4288 75.0176 9.90101 74.9994 9.41358C74.987 8.95374 74.9414 8.49539 74.863 8.04211C74.7896 7.6282 74.66 7.22621 74.4779 6.84725C74.2856 6.45652 74.0287 6.101 73.7179 5.79569C73.2771 5.34471 72.7525 4.98377 72.1736 4.73303C71.5472 4.47969 70.8764 4.3541 70.2007 4.36367C69.5225 4.35492 68.8492 4.48045 68.2198 4.73303C67.6375 4.98035 67.1096 5.33972 66.6664 5.79064C66.3562 6.09577 66.1002 6.45136 65.9094 6.8422C65.7288 7.22125 65.6012 7.6233 65.5304 8.03706C65.4537 8.49048 65.4098 8.94882 65.399 9.40853C65.3869 9.89596 65.3808 10.4238 65.3838 10.9849C65.3869 11.546 65.3838 12.0697 65.399 12.5602C65.4098 13.0199 65.4537 13.4782 65.5304 13.9316C65.6012 14.3454 65.7288 14.7475 65.9094 15.1265C66.1009 15.5169 66.3568 15.8724 66.6664 16.1781C67.1089 16.6294 67.637 16.9882 68.2198 17.2337C68.8488 17.4879 69.5222 17.6142 70.2007 17.605C70.8767 17.615 71.5477 17.4887 72.1736 17.2337C72.7526 16.9863 73.2774 16.6276 73.7179 16.1781C74.028 15.8722 74.2849 15.5168 74.4779 15.1265C74.66 14.7475 74.7896 14.3456 74.863 13.9316C74.9406 13.4796 74.9855 13.0227 74.9974 12.5642C75.0126 12.0738 75.0196 11.549 75.0156 10.9889L75.0176 10.9899ZM72.4707 10.9899C72.4707 11.6116 72.4616 12.1293 72.4404 12.541C72.4285 12.8792 72.3947 13.2163 72.3393 13.5502C72.3014 13.7726 72.2334 13.9889 72.1372 14.193C72.059 14.3576 71.9569 14.5096 71.834 14.6441C71.6443 14.861 71.4089 15.0333 71.1447 15.1487C70.8474 15.2757 70.5271 15.3403 70.2038 15.3385C69.8788 15.3399 69.557 15.2753 69.2578 15.1487C68.9871 15.0354 68.7454 14.863 68.5503 14.6441C68.4266 14.5102 68.3244 14.358 68.2471 14.193C68.1535 13.9887 68.0889 13.7723 68.055 13.5502C68.0011 13.2161 67.9673 12.8791 67.954 12.541C67.9358 12.1293 67.9267 11.6122 67.9267 10.9899C67.9267 10.3683 67.9358 9.84954 67.954 9.4378C67.9674 9.09969 68.0011 8.76269 68.055 8.42862C68.0889 8.20648 68.1535 7.99013 68.2471 7.78578C68.3246 7.62089 68.4268 7.46878 68.5503 7.33468C68.7456 7.11609 68.9873 6.94372 69.2578 6.83009C69.5565 6.70205 69.8787 6.63744 70.2038 6.64036C70.5273 6.63701 70.8478 6.70165 71.1447 6.83009C71.4087 6.94586 71.644 7.11811 71.834 7.33468C71.9566 7.46939 72.0588 7.62138 72.1372 7.78578C72.2334 7.98992 72.3014 8.20618 72.3393 8.42862C72.3946 8.7625 72.4284 9.09959 72.4404 9.4378C72.4626 9.84853 72.4707 10.3672 72.4707 10.9899Z" fill="#23AF91"/>
<path d="M95.312 4.70069C95.3109 4.57797 95.2115 4.47876 95.0886 4.47766H92.9874C92.8643 4.47821 92.7646 4.57774 92.7641 4.70069V12.4511L87.6399 4.54023C87.6056 4.48674 87.5753 4.47766 87.4995 4.47766H85.5509C85.4282 4.47929 85.3291 4.5782 85.3275 4.70069V17.277C85.3292 17.3993 85.4284 17.4979 85.5509 17.499H87.6511C87.7736 17.4985 87.8729 17.3994 87.8734 17.277V9.50638L92.9986 17.4355C93.0339 17.4889 93.0622 17.498 93.139 17.498H95.0866C95.2094 17.4975 95.3089 17.3986 95.31 17.276L95.312 4.70069Z" fill="#23AF91"/>
<path d="M81.2272 4.70069C81.2266 4.57774 81.1269 4.47821 81.0038 4.47766H78.9046C78.7815 4.47821 78.6818 4.57774 78.6813 4.70069V17.276C78.6818 17.399 78.7815 17.4985 78.9046 17.499H81.0038C81.1269 17.4985 81.2266 17.399 81.2272 17.276V4.70069Z" fill="#23AF91"/>
<path d="M56.0977 10.9899C56.0977 10.3642 56.1047 9.84348 56.1229 9.42871C56.1353 9.09053 56.169 8.75346 56.224 8.41954C56.418 7.29935 57.2771 6.63834 58.3737 6.63834C59.0893 6.6444 59.7381 6.9088 60.1525 7.51027C60.3402 7.79107 60.477 8.10259 60.5568 8.43064C60.5629 8.46519 60.5945 8.4893 60.6295 8.48614H63.1007C63.136 8.48614 63.1492 8.46192 63.1431 8.42761C62.8732 6.90073 62.0576 5.52926 60.6164 4.85009C59.9081 4.52262 59.135 4.35877 58.3545 4.37073C56.9631 4.37073 55.7911 4.84638 54.8384 5.7977C54.2944 6.32704 53.9231 7.00799 53.7731 7.75146C53.6276 8.48345 53.5541 9.56259 53.5528 10.9889C53.5514 12.4152 53.6249 13.494 53.7731 14.2253C53.9219 14.9697 54.2921 15.6521 54.8353 16.1831C55.7874 17.1338 56.9594 17.6091 58.3515 17.6091C59.1318 17.6209 59.9048 17.4574 60.6134 17.1307C62.0546 16.4516 62.8702 15.0801 63.1401 13.5532C63.1461 13.5179 63.133 13.4947 63.0976 13.4947H60.6255C60.5903 13.491 60.5584 13.5153 60.5527 13.5502C60.4728 13.8778 60.3359 14.189 60.1485 14.4695C59.7341 15.075 59.0852 15.3364 58.3697 15.3415C57.2731 15.3415 56.414 14.6815 56.22 13.5613C56.1651 13.2273 56.1313 12.8903 56.1189 12.5521C56.1047 12.1353 56.0977 11.6136 56.0977 10.9899Z" fill="#23AF91"/>
<path d="M29.9979 4.70069C29.9974 4.57774 29.8977 4.47821 29.7746 4.47766H27.6754C27.5523 4.47821 27.4526 4.57774 27.452 4.70069V17.277C27.4531 17.3996 27.5526 17.4985 27.6754 17.4992H29.7746C29.8973 17.4985 29.9968 17.3996 29.9979 17.277V13.5855L31.6827 11.5742L35.1433 17.4324C35.1699 17.4756 35.2178 17.5011 35.2686 17.4992H37.8196C37.9368 17.4992 37.958 17.4264 37.8994 17.3265L33.3685 9.65674L37.5255 4.67748C37.6093 4.57656 37.574 4.48069 37.4426 4.48069H34.6541C34.6202 4.4787 34.5875 4.49386 34.5672 4.52106L29.9979 9.9928V4.70069Z" fill="#23AF91"/>
<path d="M45.2915 15.3414C44.11 15.3414 43.0387 14.2495 43.0387 12.9456V4.70069C43.0381 4.57774 42.9385 4.47821 42.8153 4.47766H40.7162C40.593 4.47821 40.4934 4.57774 40.4928 4.70069V12.9134C40.4928 15.7845 42.6435 17.609 45.2915 17.609C47.9395 17.609 50.0902 15.7845 50.0902 12.9134V4.70069C50.0891 4.57797 49.9897 4.47876 49.8668 4.47766H47.7667C47.6439 4.47876 47.5448 4.57813 47.5443 4.70069V12.9456C47.5443 14.2485 46.472 15.3414 45.2915 15.3414Z" fill="#23AF91"/>
<path fill-rule="evenodd" clip-rule="evenodd" d="M6.3511 10.9899L12.868 17.498L16.9814 13.3907C17.717 12.7294 18.8423 12.7588 19.5421 13.4576C20.242 14.1565 20.2715 15.2801 19.6092 16.0145L14.1808 21.4358C13.4517 22.1519 12.2822 22.1519 11.5531 21.4358L3.72132 13.6137V18.263C3.72132 19.2891 2.88827 20.1209 1.86066 20.1209C0.833045 20.1209 0 19.2891 0 18.263V3.71069C0 2.68461 0.833045 1.85281 1.86066 1.85281C2.88827 1.85281 3.72132 2.68461 3.72132 3.71069V8.35996L11.5521 0.539869C12.281 -0.176701 13.4509 -0.176701 14.1798 0.539869L19.6122 5.96014C20.2745 6.69459 20.245 7.81822 19.5452 8.51705C18.8453 9.21589 17.72 9.24531 16.9844 8.584L12.871 4.47666L6.3511 10.9899ZM12.871 9.12996C12.1175 9.12955 11.438 9.58245 11.1494 10.2774C10.8607 10.9724 11.0199 11.7725 11.5525 12.3047C12.0851 12.8368 12.8864 12.9961 13.5826 12.7083C14.2787 12.4205 14.7327 11.7422 14.7327 10.9899C14.7329 10.4966 14.5369 10.0234 14.1878 9.67442C13.8387 9.32543 13.365 9.12922 12.871 9.12895V9.12996Z" fill="#23AF91"/>
</svg>
