<svg width="152" height="71" viewBox="0 0 152 71" fill="none" xmlns="http://www.w3.org/2000/svg">
<rect y="0.59082" width="152" height="70" rx="10" fill="white"/>
<path fill-rule="evenodd" clip-rule="evenodd" d="M55.6909 21.0933H27.986C27.8152 21.0933 27.6513 21.1611 27.5305 21.282C27.4096 21.4028 27.3418 21.5666 27.3418 21.7376V49.4425C27.3418 49.6134 27.4096 49.7772 27.5305 49.898C27.6513 50.0189 27.8152 50.0867 27.986 50.0867H55.6909C55.8619 50.0867 56.0258 50.0189 56.1465 49.898C56.2674 49.7772 56.3352 49.6134 56.3352 49.4425V21.7376C56.3352 21.5666 56.2674 21.4028 56.1465 21.282C56.0258 21.1611 55.8619 21.0933 55.6909 21.0933ZM46.6707 39.778C46.6707 39.9488 46.6029 40.1127 46.482 40.2336C46.3612 40.3544 46.1974 40.4223 46.0265 40.4223H37.6505C37.4797 40.4223 37.3158 40.3544 37.1949 40.2336C37.0741 40.1127 37.0063 39.9488 37.0063 39.778V31.402C37.0063 31.2311 37.0741 31.0673 37.1949 30.9465C37.3158 30.8256 37.4797 30.7578 37.6505 30.7578H46.0265C46.1974 30.7578 46.3612 30.8256 46.482 30.9465C46.6029 31.0673 46.6707 31.2311 46.6707 31.402V39.778ZM113.695 30.759H105.319C104.963 30.759 104.675 31.0474 104.675 31.4032V39.7792C104.675 40.135 104.963 40.4235 105.319 40.4235H113.695C114.051 40.4235 114.339 40.135 114.339 39.7792V31.4032C114.339 31.0474 114.051 30.759 113.695 30.759ZM95.6502 21.0942H104.026C104.382 21.0942 104.67 21.3826 104.67 21.7386V30.1144C104.67 30.4702 104.382 30.7588 104.026 30.7588H95.6502C95.2944 30.7588 95.0059 30.4702 95.0059 30.1144V21.7386C95.0059 21.3826 95.2944 21.0942 95.6502 21.0942ZM123.354 21.0942H114.978C114.623 21.0942 114.334 21.3826 114.334 21.7385V30.1143C114.334 30.4702 114.623 30.7587 114.978 30.7587H123.354C123.71 30.7587 123.999 30.4702 123.999 30.1143V21.7385C123.999 21.3826 123.71 21.0942 123.354 21.0942ZM95.6502 40.4224H104.026C104.382 40.4224 104.67 40.7108 104.67 41.0666V49.4425C104.67 49.7984 104.382 50.0869 104.026 50.0869H95.6502C95.2944 50.0869 95.0059 49.7984 95.0059 49.4425V41.0666C95.0059 40.7108 95.2944 40.4224 95.6502 40.4224ZM123.354 40.4224H114.978C114.623 40.4224 114.334 40.7108 114.334 41.0667V49.4426C114.334 49.7985 114.623 50.087 114.978 50.087H123.354C123.71 50.087 123.999 49.7985 123.999 49.4426V41.0667C123.999 40.7108 123.71 40.4224 123.354 40.4224ZM81.1404 21.0942H89.5163C89.8721 21.0942 90.1606 21.3826 90.1606 21.7386V30.1144C90.1606 30.4702 89.8721 30.7588 89.5163 30.7588H81.1404C80.7846 30.7588 80.4961 30.4702 80.4961 30.1144V21.7386C80.4961 21.3826 80.7846 21.0942 81.1404 21.0942ZM89.5163 40.4224H81.1404C80.7846 40.4224 80.4961 40.7108 80.4961 41.0666V49.4425C80.4961 49.7984 80.7846 50.0869 81.1404 50.0869H89.5163C89.8721 50.0869 90.1606 49.7984 90.1606 49.4425V41.0666C90.1606 40.7108 89.8721 40.4224 89.5163 40.4224ZM80.3072 30.9393C80.4279 31.06 80.4959 31.2239 80.4959 31.3948V39.7707C80.4959 39.9416 80.4279 40.1054 80.3072 40.2263C80.1863 40.3471 80.0224 40.4151 79.8515 40.4151H70.8314V49.428C70.8314 49.5989 70.7634 49.7627 70.6426 49.8835C70.5218 50.0044 70.3579 50.0722 70.187 50.0722H61.8112C61.6402 50.0722 61.4763 50.0044 61.3556 49.8835C61.2347 49.7627 61.1668 49.5989 61.1668 49.428V21.7376C61.1668 21.5666 61.2347 21.4028 61.3556 21.282C61.4763 21.1611 61.6402 21.0933 61.8112 21.0933H70.187C70.3579 21.0933 70.5218 21.1611 70.6426 21.282C70.7634 21.4028 70.8314 21.5666 70.8314 21.7376V30.7505H79.8515C80.0224 30.7505 80.1863 30.8184 80.3072 30.9393Z" fill="black"/>
</svg>
