<svg width="152" height="71" viewBox="0 0 152 71" fill="none" xmlns="http://www.w3.org/2000/svg">
<rect y="0.59082" width="152" height="70" rx="10" fill="white"/>
<path d="M106.317 33.7344C106.317 30.692 103.866 28.2259 100.842 28.2259C100.109 28.2255 99.3837 28.3734 98.7092 28.6608C98.0348 28.9482 97.4252 29.3691 96.9171 29.8983C96.0595 29.0133 94.9278 28.4456 93.7067 28.2878C92.4856 28.1301 91.2472 28.3916 90.1936 29.0297H87.5322V33.7152L87.5312 33.7496H87.5322V42.4036H90.6599V33.7486C90.6593 33.4393 90.7196 33.133 90.8372 32.8471C90.9549 32.5612 91.1276 32.3013 91.3455 32.0822C91.5633 31.8632 91.8222 31.6893 92.1071 31.5705C92.3921 31.4516 92.6976 31.3902 93.0063 31.3897C93.315 31.3903 93.6205 31.4519 93.9054 31.5709C94.1904 31.6898 94.4491 31.8638 94.6669 32.083C94.8847 32.3021 95.0573 32.5621 95.1748 32.848C95.2923 33.134 95.3524 33.4403 95.3518 33.7496H95.3619V42.4036H98.4885V33.7486H98.4976L98.4965 33.7344C98.4955 33.11 98.7419 32.5106 99.1817 32.0681C99.6215 31.6256 100.219 31.3761 100.842 31.3745C101.151 31.3752 101.456 31.4367 101.741 31.5557C102.026 31.6746 102.285 31.8487 102.503 32.0678C102.72 32.2869 102.893 32.5469 103.01 32.8329C103.128 33.1188 103.188 33.4252 103.187 33.7344V33.7496H103.19V42.4036H106.317V33.7344ZM47.6595 39.25C47.145 39.2489 46.6358 39.1463 46.161 38.9481C45.6861 38.7499 45.2548 38.4598 44.8919 38.0946C44.5289 37.7293 44.2413 37.296 44.0455 36.8194C43.8497 36.3428 43.7495 35.8322 43.7507 35.3168C43.7495 34.8014 43.8497 34.2908 44.0455 33.8142C44.2413 33.3376 44.5289 32.9043 44.8919 32.539C45.2548 32.1738 45.6861 31.8837 46.161 31.6855C46.6358 31.4872 47.145 31.3847 47.6595 31.3836C48.174 31.3845 48.6833 31.487 49.1583 31.6852C49.6333 31.8834 50.0647 32.1734 50.4277 32.5387C50.7908 32.9039 51.0785 33.3373 51.2744 33.8139C51.4702 34.2906 51.5704 34.8013 51.5693 35.3168C51.5704 35.8323 51.4702 36.343 51.2744 36.8196C51.0785 37.2963 50.7908 37.7297 50.4277 38.0949C50.0647 38.4602 49.6333 38.7502 49.1583 38.9484C48.6833 39.1466 48.174 39.2491 47.6595 39.25ZM47.6595 28.236C46.2665 28.2345 44.9049 28.6504 43.7497 29.4301V29.417H40.6211V45.9354H43.7497V41.2035C44.9049 41.9834 46.2665 42.3993 47.6595 42.3976C51.547 42.3976 54.6979 39.2278 54.6979 35.3168C54.6979 31.4058 51.547 28.236 47.6595 28.236ZM137 42.3986L131.916 35.3188L136.858 28.4352H133.145L130.058 32.7324L126.973 28.4352H123.26L128.202 35.3188L123.119 42.3986H126.833L130.059 37.9052L133.286 42.3986H137ZM62.91 28.237C61.9554 28.2366 61.0154 28.4717 60.173 28.9216V24.7002H57.0443V42.3976H60.173V34.1368C60.1722 33.776 60.2423 33.4185 60.3795 33.0848C60.5166 32.7512 60.718 32.4478 60.9722 32.1922C61.2263 31.9365 61.5283 31.7335 61.8608 31.5947C62.1933 31.456 62.5498 31.3843 62.91 31.3836C63.2701 31.3844 63.6265 31.4562 63.9589 31.595C64.2913 31.7338 64.5931 31.9369 64.8472 32.1925C65.1012 32.4482 65.3025 32.7515 65.4396 33.0851C65.5767 33.4187 65.6468 33.7761 65.646 34.1368V42.3976H68.7726V34.1368H68.7746C68.7746 30.878 66.1486 28.236 62.91 28.236V28.237ZM78.1575 31.3897C78.9899 31.3909 79.8002 31.658 80.4706 32.1523C81.1411 32.6465 81.6368 33.3421 81.8856 34.1378H74.4294C74.6781 33.342 75.1737 32.6463 75.8442 32.1521C76.5147 31.6578 77.3251 31.3907 78.1575 31.3897ZM85.0909 36.4978C85.1545 36.1146 85.1949 35.7233 85.1949 35.3219C85.1949 31.4119 82.044 28.2421 78.1575 28.2421C74.2699 28.2421 71.1191 31.4119 71.1191 35.3219C71.1191 39.2328 74.2699 42.4026 78.1575 42.4026C79.3944 42.4018 80.6092 42.074 81.6791 41.4523C82.7491 40.8306 83.6363 39.937 84.2512 38.8617L81.5425 37.2885C81.201 37.8855 80.7083 38.3818 80.1141 38.7271C79.52 39.0724 78.8454 39.2545 78.1585 39.2551C77.3244 39.254 76.5125 38.9859 75.8413 38.4899C75.17 37.9938 74.6746 37.2958 74.4274 36.4978H85.0919H85.0909ZM115.691 31.3897C116.523 31.3909 117.334 31.658 118.004 32.1523C118.674 32.6465 119.17 33.3421 119.419 34.1378H111.963C112.212 33.3421 112.707 32.6465 113.378 32.1523C114.048 31.658 114.858 31.3909 115.691 31.3897ZM122.624 36.4978C122.689 36.1146 122.729 35.7233 122.729 35.3219C122.729 31.4119 119.578 28.2421 115.691 28.2421C111.804 28.2421 108.653 31.4119 108.653 35.3219C108.653 39.2328 111.804 42.4026 115.691 42.4026C116.928 42.402 118.143 42.0743 119.213 41.4525C120.283 40.8308 121.171 39.9371 121.786 38.8617L119.076 37.2885C118.734 37.8857 118.241 38.382 117.647 38.7273C117.053 39.0726 116.378 39.2547 115.691 39.2551C114.857 39.2538 114.045 38.9856 113.374 38.4896C112.703 37.9936 112.208 37.2957 111.961 36.4978H122.624Z" fill="#0B5BE0"/>
<path d="M16 42.3941C16 46.3031 19.1498 49.4719 23.0354 49.4719V35.3164C23.0354 39.2253 19.8855 42.3941 16.001 42.3941" fill="#38D102"/>
<path d="M16 28.2393V42.3947C19.8855 42.3947 23.0354 39.2259 23.0354 35.317C23.0354 31.4081 19.8855 28.2393 16.001 28.2393H16ZM26.5525 35.317C26.5525 39.2259 29.7024 42.3947 33.5879 42.3947V28.2393C33.5879 32.1482 30.4391 35.317 26.5535 35.317" fill="#0B5BE0"/>
<path d="M26.5518 21.1611V35.3166C30.4373 35.3166 33.5871 32.1478 33.5871 28.2389C33.5871 24.3299 30.4383 21.1611 26.5528 21.1611" fill="#3CEAF3"/>
</svg>
