<svg width="102" height="20" viewBox="0 0 102 20" fill="none" xmlns="http://www.w3.org/2000/svg">
<path d="M24.792 15.5258H26.5263V11.5194H29.1379C31.2005 11.5194 32.3728 9.97476 32.3728 8.1566C32.3728 6.33844 31.2153 4.79381 29.1379 4.79381H24.792V15.5258ZM30.593 8.1566C30.593 9.18635 29.8808 9.86213 28.9014 9.86213H26.5272V6.45107H28.9014C29.8808 6.45107 30.593 7.12685 30.593 8.1566ZM34.3018 10.1678C34.3018 13.3697 36.3941 15.7189 39.3618 15.7189C42.3296 15.7189 44.4218 13.3697 44.4218 10.1678C44.4218 6.96595 42.3296 4.61682 39.3618 4.61682C36.3941 4.61682 34.3018 6.96595 34.3018 10.1678ZM42.6412 10.1678C42.6412 12.3722 41.3502 14.0455 39.3618 14.0455C37.3586 14.0455 36.0824 12.3722 36.0824 10.1678C36.0824 7.94743 37.3586 6.29017 39.3618 6.29017C41.3502 6.29017 42.6412 7.94743 42.6412 10.1678ZM47.0205 15.5258H53.1192V13.8685H48.7566V4.79381H47.0205V15.5258ZM54.719 10.1678C54.719 13.3697 56.8113 15.7189 59.779 15.7189C62.7468 15.7189 64.8391 13.3697 64.8391 10.1678C64.8391 6.96595 62.7468 4.61682 59.779 4.61682C56.8113 4.61682 54.719 6.96595 54.719 10.1678ZM63.0584 10.1678C63.0584 12.3722 61.7674 14.0455 59.779 14.0455C57.7758 14.0455 56.4997 12.3722 56.4997 10.1678C56.4997 7.94743 57.7758 6.29017 59.779 6.29017C61.7674 6.29017 63.0584 7.94743 63.0584 10.1678ZM74.3387 15.5258H76.0155V4.79381H74.2793V12.4043L69.2193 4.79381H67.4386V15.5258H69.1748V7.70608L74.3387 15.5258ZM79.0454 15.5258H80.7815V4.79381H79.0463V15.5258H79.0454ZM83.8132 15.5258H90.5946V13.8685H85.5494V10.8919H90.4907V9.23462H85.5494V6.45107H90.5946V4.79381H83.8132V15.5258ZM99.9226 15.5258H102L98.3052 10.0069L101.777 4.79381H99.6852L97.1477 8.73584L94.5955 4.79381H92.518L96.0051 10.023L92.2954 15.5258H94.3729L97.1477 11.3263L99.9226 15.5258Z" fill="black"/>
<path d="M0.0202764 4.99482L0.0250499 0L4.01093 2.50517L7.9968 5.00517L4.00615 7.5L0.0155029 9.98964L0.0202764 4.99482Z" fill="#1DD5B7"/>
<path d="M11.9815 7.51042L7.99563 5.00525L7.99086 10.0001L7.98608 14.9949L11.972 17.5001L15.9578 20.0001L15.9626 15.0052L15.9722 10.0104L11.9815 7.51042Z" fill="#1DD5B7"/>
<path d="M7.99142 10.0001L7.98664 14.9949L4.00077 12.4949L0.0148926 9.98972L4.00554 7.50007L7.99619 5.00525L7.99142 10.0001Z" fill="#0F3D4B"/>
<path d="M15.9769 5.01557L15.9721 10.0104L11.9815 7.5104L7.99561 5.00522L11.991 2.51557L15.9817 0.020752L15.9769 5.01557Z" fill="#032630"/>
<path d="M0.0047735 14.9844L0.0143205 9.98962L4.0002 12.4948L7.98607 14.9948L3.99542 17.4896L0 19.9793L0.0047735 14.9844Z" fill="#032630"/>
</svg>
